<svg width="307" height="306" viewBox="0 0 307 306" fill="none" xmlns="http://www.w3.org/2000/svg">
<g opacity="0.1" clip-path="url(#clip0_874_2468)">
<path opacity="0.01" fill-rule="evenodd" clip-rule="evenodd" d="M161.334 27.9001C162.386 27.141 163.506 27.18 164.695 28.0174C163.565 28.25 162.444 28.2109 161.334 27.9001Z" fill="#231F20"/>
<path opacity="0.01" fill-rule="evenodd" clip-rule="evenodd" d="M161.334 27.9C161.29 28.1746 161.245 28.4492 161.201 28.7238C160.713 28.2387 160.757 27.964 161.334 27.9Z" fill="#231F20"/>
<path opacity="0.99" fill-rule="evenodd" clip-rule="evenodd" d="M161.201 28.7239C163.618 28.7134 165.134 29.8018 165.747 31.9891C166.312 34.6246 167.332 37.042 168.808 39.2412C168.535 40.0353 168.722 40.6288 169.367 41.0211C169.28 42.4041 169.653 43.5906 170.486 44.581C170.224 45.8292 170.641 46.7413 171.736 47.3171C171.264 48.8297 171.638 50.0164 172.855 50.8769C172.634 52.25 172.414 53.623 172.193 54.996C171.355 55.4605 170.948 56.2403 170.973 57.3352C170.237 57.5058 169.874 58.0109 169.884 58.8505C168.663 59.0543 167.982 59.7898 167.84 61.0574C167.104 61.228 166.741 61.7331 166.751 62.5727C166.016 62.7434 165.652 63.2484 165.663 64.0881C164.927 64.2587 164.564 64.7637 164.574 65.6034C164.025 65.5151 163.706 65.7457 163.618 66.2949C162.883 66.4655 162.519 66.9706 162.53 67.8102C161.794 67.9809 161.431 68.4859 161.441 69.3256C160.892 69.2373 160.574 69.4679 160.485 70.0171C159.75 70.1877 159.386 70.6928 159.397 71.5324C158.661 71.7031 158.298 72.2081 158.308 73.0478C157.573 73.2184 157.21 73.7235 157.22 74.5631C155.999 74.7668 155.317 75.5024 155.175 76.77C154.44 76.9406 154.077 77.4456 154.087 78.2853C153.351 78.4559 152.988 78.961 152.999 79.8006C151.778 80.0044 151.096 80.7399 150.954 82.0075C150.219 82.1781 149.855 82.6832 149.866 83.5228C149.13 83.6935 148.767 84.1985 148.777 85.0382C148.228 84.9499 147.909 85.1804 147.821 85.7297C147.086 85.9003 146.722 86.4054 146.733 87.245C145.997 87.4157 145.634 87.9207 145.644 88.7604C144.423 88.9641 143.742 89.6997 143.6 90.9672C142.864 91.1378 142.501 91.6429 142.511 92.4825C141.776 92.6532 141.412 93.1582 141.423 93.9979C140.202 94.2016 139.52 94.9372 139.378 96.2047C138.643 96.3754 138.279 96.8804 138.29 97.7201C137.554 97.8907 137.191 98.3958 137.202 99.2354C136.466 99.406 136.103 99.9108 136.113 100.751C135.564 100.663 135.245 100.893 135.157 101.442C134.421 101.613 134.058 102.118 134.069 102.958C133.333 103.128 132.97 103.633 132.98 104.473C131.759 104.677 131.077 105.412 130.936 106.68C130.2 106.851 129.837 107.355 129.847 108.195C128.252 108.918 127.208 110.159 126.714 111.917C125.979 112.088 125.615 112.593 125.626 113.433C124.89 113.604 124.527 114.108 124.537 114.948C123.988 114.86 123.669 115.09 123.581 115.64C122.846 115.81 122.482 116.315 122.493 117.155C121.757 117.326 121.394 117.83 121.404 118.67C120.669 118.841 120.306 119.346 120.316 120.186C119.766 120.097 119.448 120.328 119.36 120.877C118.624 121.048 118.261 121.552 118.271 122.392C117.536 122.563 117.173 123.068 117.183 123.908C115.962 124.111 115.28 124.847 115.138 126.115C114.403 126.285 114.04 126.79 114.05 127.63C113.314 127.801 112.951 128.305 112.962 129.145C111.741 129.349 111.059 130.084 110.917 131.352C110.181 131.523 109.818 132.027 109.829 132.867C109.093 133.038 108.73 133.543 108.74 134.383C108.191 134.295 107.872 134.525 107.784 135.074C107.048 135.245 106.685 135.75 106.696 136.59C105.96 136.76 105.597 137.265 105.607 138.105C104.871 138.276 104.509 138.78 104.519 139.62C103.298 139.824 102.616 140.56 102.474 141.827C101.739 141.998 101.376 142.503 101.386 143.342C99.7906 144.066 98.7462 145.307 98.2529 147.065C97.5171 147.236 97.1544 147.74 97.1645 148.58C96.4287 148.751 96.0659 149.255 96.0761 150.095C95.5268 150.007 95.2082 150.237 95.1199 150.787C94.3842 150.958 94.0214 151.462 94.0315 152.302C93.2957 152.473 92.933 152.978 92.9431 153.818C92.3939 153.729 92.0752 153.96 91.987 154.509C91.2512 154.68 90.8884 155.184 90.8986 156.024C90.1628 156.195 89.8 156.7 89.8101 157.54C89.0744 157.711 88.7116 158.215 88.7217 159.055C87.5006 159.259 86.8191 159.994 86.6772 161.262C85.721 161.953 84.7649 162.645 83.8088 163.336C83.2596 163.248 82.9409 163.478 82.8527 164.028C81.4563 163.781 80.4462 163.055 79.822 161.851C80.0946 161.057 79.9081 160.464 79.2628 160.071C79.5354 159.277 79.3489 158.684 78.7036 158.291C78.5077 157.237 78.0908 156.325 77.4528 155.555C77.7255 154.761 77.5389 154.168 76.8936 153.775C76.6977 152.721 76.2809 151.809 75.6429 151.039C75.9155 150.245 75.729 149.652 75.0837 149.259C75.1656 147.435 74.5623 145.93 73.2737 144.743C73.5463 143.949 73.3598 143.356 72.7145 142.963C73.1555 140.218 73.5966 137.471 74.0375 134.725C76.3659 132.98 78.1359 130.729 79.3473 127.972C80.5685 127.769 81.25 127.033 81.3919 125.765C82.493 125.085 83.2186 124.075 83.5687 122.735C84.7898 122.531 85.4714 121.796 85.6133 120.528C86.349 120.357 86.7118 119.852 86.7017 119.013C87.4375 118.842 87.8002 118.337 87.7901 117.497C89.0112 117.294 89.6928 116.558 89.8347 115.29C91.8938 113.306 93.6638 111.055 95.1445 108.537C97.1075 107.301 98.5146 105.556 99.3659 103.3C100.587 103.096 101.269 102.361 101.41 101.093C102.146 100.922 102.509 100.418 102.499 99.5778C103.829 98.6091 104.873 97.3681 105.632 95.8556C106.733 95.1755 107.458 94.1656 107.809 92.8249C109.03 92.6212 109.711 91.8856 109.853 90.6181C110.589 90.4475 110.952 89.9423 110.942 89.1027C113.397 86.9672 115.486 84.4858 117.208 81.6583C118.309 80.9786 119.034 79.9683 119.384 78.6277C120.605 78.4239 121.287 77.6884 121.429 76.4208C123.392 75.1849 124.799 73.439 125.65 71.1833C126.386 71.0127 126.749 70.5076 126.739 69.668C129.194 67.5324 131.283 65.051 133.005 62.2236C134.106 61.5438 134.831 60.5335 135.181 59.1929C136.402 58.9892 137.084 58.2536 137.226 56.986C138.327 56.3063 139.052 55.296 139.403 53.9554C140.624 53.7516 141.306 53.0161 141.447 51.7485C142.183 51.5779 142.546 51.0728 142.536 50.2332C144.991 48.0977 147.08 45.6162 148.802 42.7888C149.537 42.6182 149.901 42.1131 149.89 41.2735C150.626 41.1028 150.989 40.5978 150.979 39.7581C152.2 39.5544 152.881 38.8188 153.023 37.5513C154.353 36.5824 155.398 35.3417 156.156 33.8291C157.257 33.1493 157.982 32.139 158.333 30.7984C159.289 30.1069 160.245 29.4154 161.201 28.7239Z" fill="#231F20"/>
<path opacity="0.01" fill-rule="evenodd" clip-rule="evenodd" d="M158.333 30.7982C157.96 29.6115 157.96 29.6115 158.333 30.7982V30.7982Z" fill="#090A23"/>
<path opacity="0.01" fill-rule="evenodd" clip-rule="evenodd" d="M166.571 32.1213C166.297 32.0772 166.022 32.033 165.747 31.989C166.374 29.8361 166.65 29.8803 166.571 32.1213Z" fill="#231F20"/>
<path opacity="0.01" fill-rule="evenodd" clip-rule="evenodd" d="M166.571 32.1216C167.581 32.8472 167.581 32.8472 166.571 32.1216V32.1216Z" fill="#090920"/>
<path opacity="0.01" fill-rule="evenodd" clip-rule="evenodd" d="M156.156 33.8288C155.882 33.7847 155.607 33.7405 155.332 33.6965C155.959 31.5437 156.235 31.5879 156.156 33.8288Z" fill="#231F20"/>
<path opacity="0.01" fill-rule="evenodd" clip-rule="evenodd" d="M155.332 33.6966C154.695 34.1575 154.695 34.1575 155.332 33.6966V33.6966Z" fill="#080823"/>
<path opacity="0.01" fill-rule="evenodd" clip-rule="evenodd" d="M168.94 38.4175C169.95 39.1431 169.95 39.1431 168.94 38.4175V38.4175Z" fill="#080A22"/>
<path opacity="0.01" fill-rule="evenodd" clip-rule="evenodd" d="M153.023 37.5514C152.749 37.5074 152.474 37.4632 152.199 37.4191C152.827 35.2663 153.102 35.3105 153.023 37.5514Z" fill="#060621"/>
<path opacity="0.01" fill-rule="evenodd" clip-rule="evenodd" d="M152.199 37.4187C151.562 37.8797 151.562 37.8797 152.199 37.4187V37.4187Z" fill="#060621"/>
<path opacity="0.01" fill-rule="evenodd" clip-rule="evenodd" d="M169.5 40.1973C170.51 40.9229 170.51 40.9229 169.5 40.1973V40.1973Z" fill="#080923"/>
<path opacity="0.01" fill-rule="evenodd" clip-rule="evenodd" d="M150.979 39.7581C150.606 38.5715 150.606 38.5715 150.979 39.7581V39.7581Z" fill="#080923"/>
<path opacity="0.01" fill-rule="evenodd" clip-rule="evenodd" d="M149.89 41.2733C149.517 40.0866 149.517 40.0866 149.89 41.2733V41.2733Z" fill="#090823"/>
<path opacity="0.01" fill-rule="evenodd" clip-rule="evenodd" d="M171.31 44.7131C171.035 44.669 170.76 44.6248 170.486 44.5808C171.113 42.4279 171.388 42.4721 171.31 44.7131Z" fill="#231F20"/>
<path opacity="0.01" fill-rule="evenodd" clip-rule="evenodd" d="M171.31 44.7134C172.32 45.439 172.32 45.439 171.31 44.7134V44.7134Z" fill="#231F20"/>
<path opacity="0.01" fill-rule="evenodd" clip-rule="evenodd" d="M148.802 42.7889C148.429 41.6023 148.429 41.6023 148.802 42.7889V42.7889Z" fill="#231F20"/>
<path opacity="0.01" fill-rule="evenodd" clip-rule="evenodd" d="M147.978 42.6565C147.34 43.1175 147.34 43.1175 147.978 42.6565V42.6565Z" fill="#231F20"/>
<path opacity="0.01" fill-rule="evenodd" clip-rule="evenodd" d="M171.869 46.4932C172.879 47.2188 172.879 47.2188 171.869 46.4932V46.4932Z" fill="#231F20"/>
<path opacity="0.01" fill-rule="evenodd" clip-rule="evenodd" d="M172.428 48.2729C173.438 48.9985 173.438 48.9985 172.428 48.2729V48.2729Z" fill="#231F20"/>
<path opacity="0.01" fill-rule="evenodd" clip-rule="evenodd" d="M172.987 50.0532C173.997 50.7788 173.997 50.7788 172.987 50.0532V50.0532Z" fill="#080820"/>
<path opacity="0.01" fill-rule="evenodd" clip-rule="evenodd" d="M173.017 55.1285C173.07 53.9763 173.384 52.8999 173.958 51.8994C174.381 53.2904 174.067 54.3668 173.017 55.1285Z" fill="#05051F"/>
<path opacity="0.01" fill-rule="evenodd" clip-rule="evenodd" d="M142.536 50.2332C142.163 49.0466 142.163 49.0466 142.536 50.2332V50.2332Z" fill="#080921"/>
<path opacity="0.01" fill-rule="evenodd" clip-rule="evenodd" d="M141.447 51.7484C141.074 50.5617 141.074 50.5617 141.447 51.7484V51.7484Z" fill="#080825"/>
<path opacity="0.01" fill-rule="evenodd" clip-rule="evenodd" d="M172.193 54.9961C172.468 55.0402 172.743 55.0843 173.017 55.1284C172.39 57.2812 172.115 57.237 172.193 54.9961Z" fill="#0A0A24"/>
<path opacity="0.01" fill-rule="evenodd" clip-rule="evenodd" d="M140.624 51.616C139.986 52.077 139.986 52.077 140.624 51.616V51.616Z" fill="#060620"/>
<path opacity="0.01" fill-rule="evenodd" clip-rule="evenodd" d="M139.403 53.9554C139.03 52.7688 139.03 52.7688 139.403 53.9554V53.9554Z" fill="#070824"/>
<path opacity="0.01" fill-rule="evenodd" clip-rule="evenodd" d="M170.973 57.335C171.983 58.0606 171.894 58.6097 170.708 58.9826C170.796 58.4334 170.884 57.8842 170.973 57.335Z" fill="#05051E"/>
<path opacity="0.01" fill-rule="evenodd" clip-rule="evenodd" d="M169.884 58.8506C170.159 58.8946 170.434 58.9388 170.708 58.9829C170.467 59.5105 170.192 59.4663 169.884 58.8506Z" fill="#090921"/>
<path opacity="0.01" fill-rule="evenodd" clip-rule="evenodd" d="M168.796 60.3657C169.806 61.0913 169.806 61.0913 168.796 60.3657V60.3657Z" fill="#231F20"/>
<path opacity="0.01" fill-rule="evenodd" clip-rule="evenodd" d="M137.226 56.986C136.952 56.942 136.677 56.8978 136.402 56.8537C137.029 54.7009 137.305 54.7451 137.226 56.986Z" fill="#0A0B25"/>
<path opacity="0.01" fill-rule="evenodd" clip-rule="evenodd" d="M136.402 56.8538C135.765 57.3148 135.765 57.3148 136.402 56.8538V56.8538Z" fill="#231F20"/>
<path opacity="0.01" fill-rule="evenodd" clip-rule="evenodd" d="M167.84 61.0571C168.114 61.1012 168.389 61.1454 168.664 61.1894C168.674 62.0291 168.311 62.5341 167.575 62.7048C167.663 62.1555 167.752 61.6064 167.84 61.0571Z" fill="#080721"/>
<path opacity="0.01" fill-rule="evenodd" clip-rule="evenodd" d="M166.751 62.5728C167.026 62.6168 167.301 62.661 167.575 62.7051C167.334 63.2326 167.059 63.1884 166.751 62.5728Z" fill="#0A0A25"/>
<path opacity="0.01" fill-rule="evenodd" clip-rule="evenodd" d="M135.182 59.1927C134.808 58.0061 134.808 58.0061 135.182 59.1927V59.1927Z" fill="#231F20"/>
<path opacity="0.01" fill-rule="evenodd" clip-rule="evenodd" d="M165.663 64.0879C166.673 64.8135 166.673 64.8135 165.663 64.0879V64.0879Z" fill="#080A23"/>
<path opacity="0.01" fill-rule="evenodd" clip-rule="evenodd" d="M164.574 65.6035C165.584 66.3291 165.584 66.3291 164.574 65.6035V65.6035Z" fill="#231F20"/>
<path opacity="0.01" fill-rule="evenodd" clip-rule="evenodd" d="M133.005 62.2233C132.73 62.1793 132.455 62.1351 132.181 62.091C132.808 59.9382 133.083 59.9824 133.005 62.2233Z" fill="#070924"/>
<path opacity="0.01" fill-rule="evenodd" clip-rule="evenodd" d="M132.181 62.0911C131.543 62.5521 131.543 62.5521 132.181 62.0911V62.0911Z" fill="#060621"/>
<path opacity="0.01" fill-rule="evenodd" clip-rule="evenodd" d="M163.618 66.2949C163.893 66.339 164.168 66.3832 164.442 66.4272C164.453 67.2669 164.089 67.7719 163.354 67.9426C163.442 67.3933 163.53 66.8442 163.618 66.2949Z" fill="#231F20"/>
<path opacity="0.01" fill-rule="evenodd" clip-rule="evenodd" d="M162.53 67.8101C162.804 67.8541 163.079 67.8983 163.354 67.9424C163.113 68.4699 162.838 68.4257 162.53 67.8101Z" fill="#231F20"/>
<path opacity="0.01" fill-rule="evenodd" clip-rule="evenodd" d="M161.442 69.3257C162.451 70.0513 162.451 70.0513 161.442 69.3257V69.3257Z" fill="#080820"/>
<path opacity="0.01" fill-rule="evenodd" clip-rule="evenodd" d="M160.485 70.0171C160.76 70.0611 161.035 70.1053 161.309 70.1494C161.32 70.989 160.956 71.4941 160.221 71.6647C160.309 71.1155 160.397 70.5663 160.485 70.0171Z" fill="#080823"/>
<path opacity="0.01" fill-rule="evenodd" clip-rule="evenodd" d="M159.397 71.5322C159.671 71.5763 159.946 71.6205 160.221 71.6645C160.231 72.5042 159.868 73.0092 159.132 73.1799C159.221 72.6306 159.309 72.0815 159.397 71.5322Z" fill="#231F20"/>
<path opacity="0.01" fill-rule="evenodd" clip-rule="evenodd" d="M158.308 73.0479C158.583 73.0919 158.858 73.1361 159.132 73.1802C158.891 73.7077 158.616 73.6635 158.308 73.0479Z" fill="#0A0B23"/>
<path opacity="0.01" fill-rule="evenodd" clip-rule="evenodd" d="M126.739 69.6678C126.366 68.4812 126.366 68.4812 126.739 69.6678V69.6678Z" fill="#070923"/>
<path opacity="0.01" fill-rule="evenodd" clip-rule="evenodd" d="M157.22 74.563C158.23 75.2886 158.23 75.2886 157.22 74.563V74.563Z" fill="#231F20"/>
<path opacity="0.01" fill-rule="evenodd" clip-rule="evenodd" d="M125.65 71.1834C125.277 69.9968 125.277 69.9968 125.65 71.1834V71.1834Z" fill="#090A22"/>
<path opacity="0.01" fill-rule="evenodd" clip-rule="evenodd" d="M124.827 71.051C124.189 71.512 124.189 71.512 124.827 71.051V71.051Z" fill="#060520"/>
<path opacity="0.01" fill-rule="evenodd" clip-rule="evenodd" d="M156.132 76.0786C157.142 76.8042 157.142 76.8042 156.132 76.0786V76.0786Z" fill="#070624"/>
<path opacity="0.01" fill-rule="evenodd" clip-rule="evenodd" d="M122.914 72.4341C123.924 73.1597 123.924 73.1597 122.914 72.4341V72.4341Z" fill="#050620"/>
<path opacity="0.01" fill-rule="evenodd" clip-rule="evenodd" d="M155.176 76.77C155.45 76.8141 155.725 76.8583 155.999 76.9023C156.01 77.742 155.647 78.247 154.911 78.4177C154.999 77.8684 155.087 77.3193 155.176 76.77Z" fill="#060722"/>
<path opacity="0.01" fill-rule="evenodd" clip-rule="evenodd" d="M181.273 82.6512C180.9 81.4646 180.9 81.4646 181.273 82.6512V82.6512Z" fill="#231F20"/>
<path opacity="0.01" fill-rule="evenodd" clip-rule="evenodd" d="M154.087 78.2852C154.361 78.3292 154.637 78.3734 154.911 78.4175C154.67 78.945 154.395 78.9008 154.087 78.2852Z" fill="#0A0B25"/>
<path opacity="0.01" fill-rule="evenodd" clip-rule="evenodd" d="M183.745 83.0483C184.755 83.7739 184.755 83.7739 183.745 83.0483V83.0483Z" fill="#231F20"/>
<path opacity="0.01" fill-rule="evenodd" clip-rule="evenodd" d="M152.999 79.8008C154.009 80.5264 154.009 80.5264 152.999 79.8008V79.8008Z" fill="#080921"/>
<path opacity="0.01" fill-rule="evenodd" clip-rule="evenodd" d="M177.713 83.7695C178.723 84.4951 178.723 84.4951 177.713 83.7695V83.7695Z" fill="#060822"/>
<path opacity="0.992" fill-rule="evenodd" clip-rule="evenodd" d="M181.273 82.651C182.179 82.8446 182.959 83.2515 183.612 83.8717C184.446 85.6957 185.599 87.2893 187.07 88.6523C187.673 90.1577 188.595 91.4324 189.836 92.4768C189.563 93.2709 189.75 93.8644 190.395 94.2567C190.308 95.6397 190.681 96.8262 191.514 97.8166C191.774 103.21 190.936 108.428 189 113.469C188.161 113.934 187.755 114.713 187.779 115.808C187.044 115.979 186.68 116.484 186.691 117.324C185.955 117.495 185.592 117.999 185.602 118.839C185.053 118.751 184.734 118.981 184.646 119.531C183.911 119.701 183.547 120.206 183.558 121.046C182.822 121.217 182.459 121.721 182.469 122.561C180.874 123.284 179.83 124.525 179.336 126.283C178.601 126.454 178.237 126.959 178.248 127.799C177.512 127.97 177.149 128.474 177.16 129.314C176.61 129.226 176.292 129.456 176.203 130.006C175.468 130.176 175.105 130.681 175.115 131.521C174.379 131.692 174.016 132.196 174.027 133.036C173.291 133.207 172.928 133.712 172.938 134.552C171.717 134.755 171.035 135.491 170.894 136.758C170.158 136.929 169.795 137.434 169.805 138.274C169.07 138.445 168.706 138.949 168.717 139.789C167.981 139.96 167.618 140.464 167.628 141.304C167.079 141.216 166.76 141.446 166.672 141.996C165.937 142.167 165.573 142.671 165.584 143.511C164.848 143.682 164.485 144.187 164.495 145.027C163.76 145.198 163.396 145.702 163.407 146.542C162.186 146.746 161.504 147.481 161.362 148.749C160.627 148.92 160.264 149.424 160.274 150.264C159.538 150.435 159.175 150.94 159.186 151.779C157.965 151.983 157.283 152.719 157.141 153.986C156.405 154.157 156.042 154.662 156.053 155.502C155.317 155.673 154.954 156.177 154.964 157.017C154.415 156.929 154.096 157.159 154.008 157.709C153.272 157.879 152.909 158.384 152.92 159.224C152.184 159.395 151.821 159.899 151.831 160.739C151.096 160.91 150.732 161.415 150.743 162.255C150.193 162.166 149.875 162.397 149.787 162.946C149.051 163.117 148.688 163.621 148.698 164.461C147.963 164.632 147.599 165.137 147.61 165.977C146.389 166.18 145.707 166.916 145.565 168.184C144.83 168.354 144.466 168.859 144.477 169.699C143.741 169.87 143.378 170.374 143.388 171.214C142.839 171.126 142.521 171.356 142.432 171.906C141.697 172.077 141.333 172.581 141.344 173.421C140.608 173.592 140.245 174.096 140.255 174.936C139.706 174.848 139.388 175.078 139.299 175.628C138.564 175.799 138.2 176.303 138.211 177.143C137.475 177.314 137.112 177.819 137.122 178.659C136.573 178.57 136.255 178.801 136.166 179.35C135.431 179.521 135.067 180.026 135.078 180.866C133.857 181.069 133.175 181.805 133.033 183.072C132.298 183.243 131.935 183.748 131.945 184.588C130.724 184.791 130.042 185.527 129.9 186.795C129.165 186.965 128.802 187.47 128.812 188.31C128.076 188.481 127.713 188.985 127.724 189.825C126.988 189.996 126.625 190.501 126.635 191.341C125.724 192.097 125.273 193.151 125.282 194.504C123.927 196.939 123.348 199.663 123.547 202.676C123.471 204.201 123.982 205.41 125.078 206.302C124.805 207.096 124.992 207.689 125.637 208.082C125.817 210.011 126.695 211.56 128.271 212.73C127.998 213.524 128.185 214.117 128.83 214.51C128.568 215.758 128.985 216.67 130.08 217.246C130.253 219.042 130.674 220.8 131.346 222.52C134.24 219.129 136.917 215.616 139.377 211.978C140.707 211.01 141.752 209.769 142.51 208.256C144.473 207.02 145.88 205.274 146.731 203.019C147.467 202.848 147.83 202.343 147.82 201.503C149.783 200.267 151.19 198.521 152.041 196.266C153.262 196.062 153.944 195.327 154.086 194.059C154.821 193.888 155.185 193.384 155.174 192.544C157.995 189.9 160.446 186.914 162.529 183.584C163.264 183.413 163.627 182.908 163.617 182.068C166.073 179.933 168.161 177.452 169.883 174.624C170.984 173.944 171.709 172.934 172.06 171.593C173.281 171.39 173.962 170.654 174.104 169.387C176.164 167.402 177.933 165.151 179.414 162.634C181.87 160.498 183.958 158.017 185.68 155.189C186.416 155.018 186.779 154.514 186.768 153.674C187.504 153.503 187.867 152.999 187.857 152.159C189.078 151.955 189.76 151.219 189.901 149.952C191.003 149.272 191.728 148.262 192.078 146.921C193.299 146.717 193.981 145.982 194.123 144.714C194.858 144.543 195.222 144.039 195.211 143.199C197.563 140.785 199.926 138.347 202.301 135.887C205.419 139.527 208.185 143.351 210.599 147.36C210.326 148.155 210.513 148.748 211.158 149.14C211.072 150.523 211.444 151.709 212.277 152.7C212.586 158.173 211.474 163.347 208.939 168.22C208.204 168.391 207.84 168.896 207.851 169.736C206.75 170.416 206.025 171.426 205.674 172.766C204.938 172.937 204.575 173.442 204.586 174.282C203.85 174.453 203.487 174.957 203.497 175.797C202.276 176.001 201.595 176.736 201.453 178.004C200.717 178.175 200.354 178.679 200.364 179.519C199.629 179.69 199.265 180.195 199.276 181.035C198.54 181.205 198.177 181.71 198.187 182.55C197.638 182.462 197.32 182.692 197.231 183.241C196.496 183.412 196.132 183.917 196.143 184.757C195.407 184.928 195.044 185.432 195.054 186.272C194.319 186.443 193.956 186.947 193.966 187.787C193.417 187.699 193.098 187.929 193.01 188.479C192.274 188.65 191.911 189.154 191.921 189.994C191.186 190.165 190.823 190.67 190.833 191.51C189.612 191.713 188.93 192.449 188.789 193.717C188.053 193.887 187.69 194.392 187.7 195.232C186.105 195.955 185.061 197.196 184.567 198.954C183.832 199.125 183.468 199.629 183.479 200.469C182.743 200.64 182.38 201.145 182.39 201.985C181.841 201.896 181.522 202.127 181.434 202.676C180.699 202.847 180.335 203.352 180.346 204.192C179.61 204.362 179.247 204.867 179.257 205.707C178.522 205.878 178.158 206.382 178.169 207.222C177.619 207.134 177.301 207.364 177.213 207.914C176.477 208.085 176.114 208.589 176.124 209.429C175.389 209.6 175.025 210.104 175.036 210.944C174.3 211.115 173.937 211.62 173.947 212.46C172.727 212.663 172.045 213.399 171.903 214.667C171.167 214.837 170.804 215.342 170.815 216.182C170.079 216.353 169.716 216.857 169.726 217.697C169.177 217.609 168.858 217.839 168.77 218.389C168.034 218.56 167.671 219.064 167.682 219.904C166.946 220.075 166.583 220.579 166.593 221.419C166.044 221.331 165.725 221.562 165.637 222.111C164.901 222.282 164.538 222.786 164.549 223.626C163.813 223.797 163.45 224.302 163.46 225.142C162.725 225.313 162.361 225.817 162.372 226.657C161.151 226.861 160.469 227.596 160.327 228.864C159.592 229.035 159.228 229.539 159.239 230.379C158.503 230.55 158.14 231.055 158.15 231.895C156.93 232.098 156.248 232.834 156.106 234.101C155.37 234.272 155.007 234.777 155.017 235.617C154.282 235.788 153.919 236.292 153.929 237.132C153.379 237.044 153.061 237.274 152.973 237.824C152.237 237.994 151.874 238.499 151.884 239.339C151.149 239.51 150.786 240.014 150.796 240.854C149.201 241.578 148.157 242.819 147.663 244.576C146.927 244.747 146.564 245.252 146.575 246.092C145.839 246.263 145.476 246.767 145.486 247.607C144.937 247.519 144.618 247.749 144.53 248.299C143.794 248.47 143.431 248.974 143.442 249.814C142.706 249.985 142.343 250.489 142.353 251.329C141.618 251.5 141.254 252.005 141.265 252.845C140.715 252.756 140.397 252.987 140.309 253.536C139.573 253.707 139.21 254.212 139.22 255.052C138.485 255.222 138.121 255.727 138.132 256.567C136.911 256.77 136.229 257.506 136.087 258.774C135.352 258.945 134.988 259.449 134.999 260.289C133.404 261.012 132.359 262.253 131.866 264.011C131.13 264.182 130.767 264.687 130.777 265.527C130.228 265.438 129.91 265.669 129.821 266.218C129.086 266.389 128.723 266.893 128.733 267.733C127.997 267.904 127.634 268.409 127.645 269.249C127.095 269.161 126.777 269.391 126.688 269.94C125.953 270.111 125.59 270.616 125.6 271.456C124.706 271.854 123.794 272.27 122.864 272.706C122.383 271.556 121.691 270.6 120.789 269.838C121.062 269.044 120.875 268.451 120.23 268.058C120.492 266.81 120.075 265.898 118.979 265.322C119.252 264.528 119.065 263.935 118.42 263.542C118.693 262.748 118.506 262.155 117.861 261.762C118.123 260.514 117.706 259.602 116.61 259.026C116.883 258.232 116.696 257.639 116.051 257.246C116.324 256.452 116.137 255.859 115.492 255.466C115.296 254.412 114.879 253.5 114.241 252.73C114.514 251.936 114.327 251.343 113.682 250.95C113.944 249.702 113.527 248.79 112.431 248.214C112.704 247.42 112.517 246.827 111.872 246.434C112.145 245.64 111.958 245.047 111.313 244.654C111.575 243.406 111.158 242.494 110.062 241.918C110.335 241.124 110.148 240.531 109.503 240.138C109.776 239.344 109.589 238.751 108.944 238.358C109.206 237.11 108.789 236.198 107.693 235.622C107.966 234.828 107.779 234.235 107.134 233.842C107.407 233.048 107.219 232.455 106.574 232.062C106.379 231.008 105.961 230.096 105.324 229.326C105.597 228.532 105.41 227.939 104.764 227.546C105.027 226.298 104.609 225.386 103.514 224.81C103.787 224.016 103.6 223.423 102.954 223.03C103.227 222.236 103.04 221.643 102.395 221.25C102.199 220.196 101.782 219.284 101.145 218.514C101.417 217.72 101.23 217.127 100.585 216.734C100.847 215.486 100.43 214.574 99.3346 213.998C99.6075 213.204 99.4205 212.611 98.7754 212.218C99.0483 211.424 98.8613 210.831 98.2162 210.438C98.4891 209.644 98.3021 209.051 97.6569 208.659C97.4611 207.605 97.044 206.692 96.4062 205.922C96.6791 205.128 96.4921 204.535 95.847 204.143C96.1199 203.348 95.9329 202.755 95.2878 202.363C95.5607 201.568 95.3737 200.975 94.7286 200.583C95.0012 199.788 94.8146 199.195 94.1693 198.803C94.442 198.008 94.2554 197.415 93.6101 197.023C94.0953 194.002 94.5803 190.982 95.0654 187.961C97.3939 186.215 99.1636 183.964 100.375 181.208C101.596 181.004 102.278 180.269 102.42 179.001C103.521 178.321 104.246 177.311 104.597 175.97C105.818 175.767 106.499 175.031 106.641 173.763C107.377 173.593 107.74 173.088 107.73 172.248C108.465 172.077 108.828 171.573 108.818 170.733C110.039 170.529 110.721 169.794 110.863 168.526C111.964 167.846 112.689 166.836 113.039 165.495C114.37 164.527 115.414 163.286 116.172 161.773C117.503 160.804 118.547 159.563 119.305 158.051C120.407 157.371 121.132 156.361 121.482 155.02C123.445 153.784 124.852 152.038 125.704 149.783C126.924 149.579 127.606 148.843 127.748 147.576C128.484 147.405 128.847 146.901 128.837 146.061C129.572 145.89 129.935 145.385 129.925 144.545C131.146 144.342 131.828 143.606 131.97 142.338C133.933 141.102 135.339 139.356 136.191 137.101C136.927 136.93 137.29 136.425 137.279 135.585C140.957 131.533 144.453 127.306 147.767 122.904C148.868 122.224 149.593 121.213 149.943 119.873C151.274 118.904 152.318 117.663 153.076 116.151C155.405 114.405 157.175 112.154 158.386 109.398C159.607 109.194 160.289 108.459 160.431 107.191C162.49 105.206 164.26 102.955 165.741 100.438C167.071 99.4692 168.115 98.2286 168.874 96.7159C171.694 94.0727 174.145 91.0861 176.228 87.7562C178.074 86.2615 179.755 84.5597 181.273 82.651Z" fill="#231F20"/>
<path opacity="0.01" fill-rule="evenodd" clip-rule="evenodd" d="M185.951 85.0928C186.961 85.8184 186.961 85.8184 185.951 85.0928V85.0928Z" fill="#07061E"/>
<path opacity="0.01" fill-rule="evenodd" clip-rule="evenodd" d="M121.429 76.4206C121.155 76.3765 120.879 76.3323 120.605 76.2883C121.232 74.1355 121.507 74.1797 121.429 76.4206Z" fill="#0A0A24"/>
<path opacity="0.01" fill-rule="evenodd" clip-rule="evenodd" d="M120.605 76.2884C119.967 76.7493 119.967 76.7493 120.605 76.2884V76.2884Z" fill="#231F20"/>
<path opacity="0.01" fill-rule="evenodd" clip-rule="evenodd" d="M151.91 81.3159C152.92 82.0415 152.92 82.0415 151.91 81.3159V81.3159Z" fill="#231F20"/>
<path opacity="0.01" fill-rule="evenodd" clip-rule="evenodd" d="M150.954 82.0073C151.228 82.0514 151.504 82.0956 151.778 82.1396C151.537 82.6672 151.262 82.623 150.954 82.0073Z" fill="#231F20"/>
<path opacity="0.01" fill-rule="evenodd" clip-rule="evenodd" d="M187.202 87.8286C188.212 88.5542 188.212 88.5542 187.202 87.8286V87.8286Z" fill="#231F20"/>
<path opacity="0.01" fill-rule="evenodd" clip-rule="evenodd" d="M119.384 78.6278C119.011 77.4411 119.011 77.4411 119.384 78.6278V78.6278Z" fill="#080823"/>
<path opacity="0.01" fill-rule="evenodd" clip-rule="evenodd" d="M176.228 87.7565C175.954 87.7125 175.678 87.6683 175.404 87.6242C176.031 85.4714 176.306 85.5156 176.228 87.7565Z" fill="#080722"/>
<path opacity="0.01" fill-rule="evenodd" clip-rule="evenodd" d="M149.866 83.5229C150.876 84.2485 150.876 84.2485 149.866 83.5229V83.5229Z" fill="#070A23"/>
<path opacity="0.01" fill-rule="evenodd" clip-rule="evenodd" d="M175.404 87.6243C174.766 88.0853 174.766 88.0853 175.404 87.6243V87.6243Z" fill="#231F20"/>
<path opacity="0.01" fill-rule="evenodd" clip-rule="evenodd" d="M148.777 85.0381C149.787 85.7637 149.787 85.7637 148.777 85.0381V85.0381Z" fill="#231F20"/>
<path opacity="0.01" fill-rule="evenodd" clip-rule="evenodd" d="M173.492 89.0073C174.502 89.7329 174.502 89.7329 173.492 89.0073V89.0073Z" fill="#080A21"/>
<path opacity="0.01" fill-rule="evenodd" clip-rule="evenodd" d="M189.968 91.6533C190.978 92.3789 190.978 92.3789 189.968 91.6533V91.6533Z" fill="#231F20"/>
<path opacity="0.01" fill-rule="evenodd" clip-rule="evenodd" d="M117.208 81.6584C116.933 81.6143 116.658 81.5701 116.384 81.5261C117.011 79.3733 117.286 79.4174 117.208 81.6584Z" fill="#080B2B"/>
<path opacity="0.01" fill-rule="evenodd" clip-rule="evenodd" d="M116.384 81.5261C115.746 81.9871 115.746 81.9871 116.384 81.5261V81.5261Z" fill="#231F20"/>
<path opacity="0.01" fill-rule="evenodd" clip-rule="evenodd" d="M147.821 85.7295C148.095 85.7735 148.371 85.8177 148.645 85.8618C148.655 86.7014 148.292 87.2065 147.557 87.3771C147.645 86.8279 147.733 86.2787 147.821 85.7295Z" fill="#0A0A21"/>
<path opacity="0.01" fill-rule="evenodd" clip-rule="evenodd" d="M190.527 93.4331C191.537 94.1587 191.537 94.1587 190.527 93.4331V93.4331Z" fill="#080A22"/>
<path opacity="0.01" fill-rule="evenodd" clip-rule="evenodd" d="M146.733 87.2451C147.007 87.2892 147.282 87.3334 147.557 87.3774C147.567 88.2171 147.204 88.7221 146.468 88.8928C146.556 88.3435 146.645 87.7944 146.733 87.2451Z" fill="#231F20"/>
<path opacity="0.01" fill-rule="evenodd" clip-rule="evenodd" d="M145.644 88.7603C145.919 88.8043 146.194 88.8485 146.468 88.8926C146.227 89.4201 145.952 89.3759 145.644 88.7603Z" fill="#0A0A26"/>
<path opacity="0.01" fill-rule="evenodd" clip-rule="evenodd" d="M192.337 97.9489C192.063 97.9048 191.788 97.8607 191.514 97.8166C192.141 95.6638 192.416 95.708 192.337 97.9489Z" fill="#231F20"/>
<path opacity="0.01" fill-rule="evenodd" clip-rule="evenodd" d="M144.556 90.2759C145.566 91.0015 145.566 91.0015 144.556 90.2759V90.2759Z" fill="#080821"/>
<path opacity="0.01" fill-rule="evenodd" clip-rule="evenodd" d="M192.337 97.9491C193.129 98.4114 193.179 98.9827 192.485 99.6629C192.181 99.1118 192.132 98.5405 192.337 97.9491Z" fill="#070922"/>
<path opacity="0.01" fill-rule="evenodd" clip-rule="evenodd" d="M143.6 90.9673C143.874 91.0113 144.149 91.0555 144.424 91.0996C144.434 91.9392 144.071 92.4443 143.335 92.6149C143.423 92.0657 143.512 91.5165 143.6 90.9673Z" fill="#231F20"/>
<path opacity="0.01" fill-rule="evenodd" clip-rule="evenodd" d="M168.874 96.7162C168.5 95.5295 168.5 95.5295 168.874 96.7162V96.7162Z" fill="#080B27"/>
<path opacity="0.01" fill-rule="evenodd" clip-rule="evenodd" d="M142.511 92.4824C142.786 92.5265 143.061 92.5707 143.335 92.6147C143.094 93.1423 142.819 93.0981 142.511 92.4824Z" fill="#231F20"/>
<path opacity="0.01" fill-rule="evenodd" clip-rule="evenodd" d="M110.942 89.1028C110.569 87.9162 110.569 87.9162 110.942 89.1028V89.1028Z" fill="#080A24"/>
<path opacity="0.01" fill-rule="evenodd" clip-rule="evenodd" d="M141.423 93.998C142.433 94.7236 142.433 94.7236 141.423 93.998V93.998Z" fill="#090923"/>
<path opacity="0.01" fill-rule="evenodd" clip-rule="evenodd" d="M109.853 90.618C109.48 89.4314 109.48 89.4314 109.853 90.618V90.618Z" fill="#080929"/>
<path opacity="0.01" fill-rule="evenodd" clip-rule="evenodd" d="M109.029 90.4856C108.392 90.9466 108.392 90.9466 109.029 90.4856V90.4856Z" fill="#231F20"/>
<path opacity="0.01" fill-rule="evenodd" clip-rule="evenodd" d="M140.334 95.5132C141.344 96.2388 141.344 96.2388 140.334 95.5132V95.5132Z" fill="#231F20"/>
<path opacity="0.01" fill-rule="evenodd" clip-rule="evenodd" d="M165.741 100.438C165.368 99.2517 165.368 99.2517 165.741 100.438V100.438Z" fill="#090923"/>
<path opacity="0.01" fill-rule="evenodd" clip-rule="evenodd" d="M107.809 92.825C107.436 91.6384 107.436 91.6384 107.809 92.825V92.825Z" fill="#090923"/>
<path opacity="0.01" fill-rule="evenodd" clip-rule="evenodd" d="M139.378 96.2046C139.653 96.2486 139.928 96.2928 140.202 96.3369C140.213 97.1765 139.849 97.6816 139.114 97.8522C139.202 97.303 139.29 96.7538 139.378 96.2046Z" fill="#231F20"/>
<path opacity="0.01" fill-rule="evenodd" clip-rule="evenodd" d="M138.29 97.7202C138.564 97.7643 138.84 97.8085 139.114 97.8525C138.873 98.3801 138.598 98.3359 138.29 97.7202Z" fill="#0A0B24"/>
<path opacity="0.01" fill-rule="evenodd" clip-rule="evenodd" d="M192.632 101.377C193.114 104.391 192.766 107.434 191.589 110.505C191.661 107.431 192.009 104.388 192.632 101.377Z" fill="#231F20"/>
<path opacity="0.01" fill-rule="evenodd" clip-rule="evenodd" d="M137.202 99.2354C138.211 99.9612 138.211 99.9612 137.202 99.2354V99.2354Z" fill="#231F20"/>
<path opacity="0.01" fill-rule="evenodd" clip-rule="evenodd" d="M105.632 95.8556C105.357 95.8115 105.083 95.7674 104.808 95.7233C105.435 93.5706 105.71 93.6147 105.632 95.8556Z" fill="#0B0B26"/>
<path opacity="0.01" fill-rule="evenodd" clip-rule="evenodd" d="M104.808 95.7234C104.171 96.1847 104.171 96.1847 104.808 95.7234V95.7234Z" fill="#080824"/>
<path opacity="0.01" fill-rule="evenodd" clip-rule="evenodd" d="M136.113 100.75C137.123 101.476 137.123 101.476 136.113 100.75V100.75Z" fill="#060620"/>
<path opacity="0.01" fill-rule="evenodd" clip-rule="evenodd" d="M135.157 101.442C135.431 101.486 135.706 101.531 135.981 101.575C135.74 102.102 135.465 102.058 135.157 101.442Z" fill="#231F20"/>
<path opacity="0.01" fill-rule="evenodd" clip-rule="evenodd" d="M160.431 107.191C160.156 107.147 159.881 107.103 159.607 107.059C160.234 104.906 160.509 104.95 160.431 107.191Z" fill="#060622"/>
<path opacity="0.01" fill-rule="evenodd" clip-rule="evenodd" d="M159.607 107.059C158.969 107.52 158.969 107.52 159.607 107.059V107.059Z" fill="#050422"/>
<path opacity="0.01" fill-rule="evenodd" clip-rule="evenodd" d="M102.499 99.5777C101.707 99.115 101.658 98.5443 102.352 97.8639C102.656 98.4147 102.705 98.9862 102.499 99.5777Z" fill="#090721"/>
<path opacity="0.01" fill-rule="evenodd" clip-rule="evenodd" d="M134.069 102.958C135.079 103.683 134.99 104.232 133.804 104.605C133.892 104.056 133.98 103.507 134.069 102.958Z" fill="#05051F"/>
<path opacity="0.01" fill-rule="evenodd" clip-rule="evenodd" d="M189.824 113.602C189.814 112.975 190.039 112.448 190.5 112.02C190.946 112.884 190.721 113.41 189.824 113.602Z" fill="#050620"/>
<path opacity="0.01" fill-rule="evenodd" clip-rule="evenodd" d="M132.98 104.473C133.255 104.517 133.53 104.561 133.804 104.605C133.563 105.132 133.288 105.088 132.98 104.473Z" fill="#090923"/>
<path opacity="0.01" fill-rule="evenodd" clip-rule="evenodd" d="M158.386 109.398C158.013 108.212 158.013 108.212 158.386 109.398V109.398Z" fill="#070924"/>
<path opacity="0.01" fill-rule="evenodd" clip-rule="evenodd" d="M101.41 101.093C101.038 99.9065 101.038 99.9065 101.41 101.093V101.093Z" fill="#231F20"/>
<path opacity="0.01" fill-rule="evenodd" clip-rule="evenodd" d="M189 113.469C189.274 113.513 189.549 113.557 189.824 113.602C189.197 115.755 188.921 115.71 189 113.469Z" fill="#231F20"/>
<path opacity="0.01" fill-rule="evenodd" clip-rule="evenodd" d="M100.587 100.961C99.9491 101.422 99.9491 101.422 100.587 100.961V100.961Z" fill="#231F20"/>
<path opacity="0.01" fill-rule="evenodd" clip-rule="evenodd" d="M131.892 105.988C132.902 106.714 132.902 106.714 131.892 105.988V105.988Z" fill="#040623"/>
<path opacity="0.01" fill-rule="evenodd" clip-rule="evenodd" d="M187.779 115.809C188.789 116.534 188.789 116.534 187.779 115.809V115.809Z" fill="#080A22"/>
<path opacity="0.01" fill-rule="evenodd" clip-rule="evenodd" d="M99.366 103.3C98.9931 102.114 98.9931 102.114 99.366 103.3V103.3Z" fill="#080823"/>
<path opacity="0.01" fill-rule="evenodd" clip-rule="evenodd" d="M130.936 106.68C131.21 106.724 131.485 106.768 131.759 106.812C131.77 107.652 131.407 108.156 130.671 108.327C130.759 107.778 130.847 107.229 130.936 106.68Z" fill="#06061F"/>
<path opacity="0.01" fill-rule="evenodd" clip-rule="evenodd" d="M129.847 108.195C130.121 108.239 130.397 108.284 130.671 108.328C130.43 108.855 130.155 108.811 129.847 108.195Z" fill="#090922"/>
<path opacity="0.01" fill-rule="evenodd" clip-rule="evenodd" d="M186.691 117.324C187.701 118.05 187.701 118.05 186.691 117.324V117.324Z" fill="#231F20"/>
<path opacity="0.01" fill-rule="evenodd" clip-rule="evenodd" d="M128.759 109.71C129.769 110.436 129.769 110.436 128.759 109.71V109.71Z" fill="#070824"/>
<path opacity="0.01" fill-rule="evenodd" clip-rule="evenodd" d="M185.602 118.839C186.612 119.565 186.612 119.565 185.602 118.839V118.839Z" fill="#070A22"/>
<path opacity="0.01" fill-rule="evenodd" clip-rule="evenodd" d="M127.67 111.226C128.68 111.951 128.68 111.951 127.67 111.226V111.226Z" fill="#231F20"/>
<path opacity="0.01" fill-rule="evenodd" clip-rule="evenodd" d="M153.076 116.151C152.285 115.688 152.235 115.118 152.929 114.437C153.233 114.988 153.282 115.559 153.076 116.151Z" fill="#231F20"/>
<path opacity="0.01" fill-rule="evenodd" clip-rule="evenodd" d="M184.646 119.531C184.921 119.575 185.196 119.619 185.47 119.663C185.481 120.503 185.117 121.008 184.382 121.178C184.47 120.629 184.558 120.08 184.646 119.531Z" fill="#080A22"/>
<path opacity="0.01" fill-rule="evenodd" clip-rule="evenodd" d="M126.714 111.917C126.989 111.962 127.264 112.006 127.538 112.05C127.297 112.577 127.022 112.533 126.714 111.917Z" fill="#231F20"/>
<path opacity="0.01" fill-rule="evenodd" clip-rule="evenodd" d="M95.1445 108.537C94.7716 107.351 94.7716 107.351 95.1445 108.537V108.537Z" fill="#080925"/>
<path opacity="0.01" fill-rule="evenodd" clip-rule="evenodd" d="M183.558 121.046C183.832 121.09 184.107 121.134 184.382 121.178C184.392 122.018 184.029 122.523 183.293 122.694C183.381 122.144 183.469 121.595 183.558 121.046Z" fill="#231F20"/>
<path opacity="0.01" fill-rule="evenodd" clip-rule="evenodd" d="M125.626 113.433C126.636 114.158 126.636 114.158 125.626 113.433V113.433Z" fill="#231F20"/>
<path opacity="0.01" fill-rule="evenodd" clip-rule="evenodd" d="M182.469 122.562C182.744 122.606 183.019 122.65 183.293 122.694C183.052 123.221 182.777 123.177 182.469 122.562Z" fill="#090A23"/>
<path opacity="0.01" fill-rule="evenodd" clip-rule="evenodd" d="M124.537 114.948C125.547 115.674 125.547 115.674 124.537 114.948V114.948Z" fill="#060722"/>
<path opacity="0.01" fill-rule="evenodd" clip-rule="evenodd" d="M149.944 119.873C149.57 118.687 149.57 118.687 149.944 119.873V119.873Z" fill="#080921"/>
<path opacity="0.01" fill-rule="evenodd" clip-rule="evenodd" d="M181.381 124.077C182.391 124.803 182.391 124.803 181.381 124.077V124.077Z" fill="#070920"/>
<path opacity="0.01" fill-rule="evenodd" clip-rule="evenodd" d="M123.581 115.64C123.856 115.684 124.131 115.728 124.405 115.772C124.416 116.612 124.052 117.116 123.317 117.287C123.405 116.738 123.493 116.189 123.581 115.64Z" fill="#060822"/>
<path opacity="0.01" fill-rule="evenodd" clip-rule="evenodd" d="M180.292 125.592C181.302 126.318 181.302 126.318 180.292 125.592V125.592Z" fill="#231F20"/>
<path opacity="0.01" fill-rule="evenodd" clip-rule="evenodd" d="M122.493 117.155C122.767 117.199 123.042 117.243 123.317 117.287C123.076 117.815 122.8 117.77 122.493 117.155Z" fill="#231F20"/>
<path opacity="0.01" fill-rule="evenodd" clip-rule="evenodd" d="M179.336 126.284C179.611 126.328 179.886 126.372 180.16 126.416C179.919 126.943 179.644 126.899 179.336 126.284Z" fill="#070925"/>
<path opacity="0.01" fill-rule="evenodd" clip-rule="evenodd" d="M147.767 122.904C147.492 122.86 147.217 122.815 146.943 122.771C147.57 120.618 147.845 120.662 147.767 122.904Z" fill="#090A24"/>
<path opacity="0.01" fill-rule="evenodd" clip-rule="evenodd" d="M121.404 118.67C122.414 119.396 122.414 119.396 121.404 118.67V118.67Z" fill="#070921"/>
<path opacity="0.01" fill-rule="evenodd" clip-rule="evenodd" d="M146.943 122.771C146.305 123.233 146.305 123.233 146.943 122.771V122.771Z" fill="#231F20"/>
<path opacity="0.01" fill-rule="evenodd" clip-rule="evenodd" d="M178.248 127.799C179.258 128.525 179.258 128.525 178.248 127.799V127.799Z" fill="#080824"/>
<path opacity="0.01" fill-rule="evenodd" clip-rule="evenodd" d="M89.8347 115.29C89.5601 115.246 89.2855 115.202 89.0109 115.158C89.6383 113.005 89.913 113.049 89.8347 115.29Z" fill="#231F20"/>
<path opacity="0.01" fill-rule="evenodd" clip-rule="evenodd" d="M89.0109 115.158C88.3734 115.619 88.3734 115.619 89.0109 115.158V115.158Z" fill="#231F20"/>
<path opacity="0.01" fill-rule="evenodd" clip-rule="evenodd" d="M120.316 120.186C121.326 120.911 121.326 120.911 120.316 120.186V120.186Z" fill="#070820"/>
<path opacity="0.01" fill-rule="evenodd" clip-rule="evenodd" d="M177.16 129.314C178.169 130.04 178.169 130.04 177.16 129.314V129.314Z" fill="#070820"/>
<path opacity="0.01" fill-rule="evenodd" clip-rule="evenodd" d="M119.36 120.877C119.634 120.921 119.909 120.965 120.184 121.009C119.943 121.537 119.667 121.493 119.36 120.877Z" fill="#231F20"/>
<path opacity="0.01" fill-rule="evenodd" clip-rule="evenodd" d="M87.7902 117.497C87.4173 116.311 87.4173 116.311 87.7902 117.497V117.497Z" fill="#060820"/>
<path opacity="0.01" fill-rule="evenodd" clip-rule="evenodd" d="M176.203 130.006C176.478 130.05 176.753 130.094 177.027 130.138C177.038 130.978 176.674 131.483 175.939 131.653C176.027 131.104 176.115 130.555 176.203 130.006Z" fill="#231F20"/>
<path opacity="0.01" fill-rule="evenodd" clip-rule="evenodd" d="M86.7018 119.012C86.3289 117.826 86.3289 117.826 86.7018 119.012V119.012Z" fill="#090B22"/>
<path opacity="0.01" fill-rule="evenodd" clip-rule="evenodd" d="M118.271 122.392C119.281 123.118 119.193 123.667 118.007 124.04C118.095 123.49 118.183 122.942 118.271 122.392Z" fill="#05061F"/>
<path opacity="0.01" fill-rule="evenodd" clip-rule="evenodd" d="M175.115 131.521C175.389 131.565 175.664 131.609 175.939 131.653C175.949 132.493 175.586 132.998 174.85 133.169C174.939 132.619 175.027 132.07 175.115 131.521Z" fill="#231F20"/>
<path opacity="0.01" fill-rule="evenodd" clip-rule="evenodd" d="M117.183 123.908C117.457 123.952 117.733 123.996 118.007 124.04C117.766 124.567 117.491 124.523 117.183 123.908Z" fill="#231F20"/>
<path opacity="0.01" fill-rule="evenodd" clip-rule="evenodd" d="M174.027 133.037C174.301 133.081 174.576 133.125 174.85 133.169C174.609 133.696 174.334 133.652 174.027 133.037Z" fill="#231F20"/>
<path opacity="0.01" fill-rule="evenodd" clip-rule="evenodd" d="M85.6133 120.528C85.2404 119.342 85.2404 119.342 85.6133 120.528V120.528Z" fill="#231F20"/>
<path opacity="0.01" fill-rule="evenodd" clip-rule="evenodd" d="M84.7895 120.396C84.152 120.857 84.152 120.857 84.7895 120.396V120.396Z" fill="#06061F"/>
<path opacity="0.01" fill-rule="evenodd" clip-rule="evenodd" d="M116.095 125.423C117.105 126.149 117.105 126.149 116.095 125.423V125.423Z" fill="#231F20"/>
<path opacity="0.01" fill-rule="evenodd" clip-rule="evenodd" d="M172.938 134.552C173.948 135.278 173.948 135.278 172.938 134.552V134.552Z" fill="#070824"/>
<path opacity="0.01" fill-rule="evenodd" clip-rule="evenodd" d="M83.5687 122.734C83.1958 121.548 83.1958 121.548 83.5687 122.734V122.734Z" fill="#040420"/>
<path opacity="0.01" fill-rule="evenodd" clip-rule="evenodd" d="M115.139 126.115C115.413 126.159 115.688 126.203 115.962 126.247C115.973 127.087 115.61 127.592 114.874 127.762C114.962 127.213 115.05 126.664 115.139 126.115Z" fill="#080A23"/>
<path opacity="0.01" fill-rule="evenodd" clip-rule="evenodd" d="M171.85 136.067C172.86 136.793 172.86 136.793 171.85 136.067V136.067Z" fill="#07081F"/>
<path opacity="0.01" fill-rule="evenodd" clip-rule="evenodd" d="M114.05 127.63C114.324 127.674 114.6 127.718 114.874 127.762C114.633 128.29 114.358 128.245 114.05 127.63Z" fill="#231F20"/>
<path opacity="0.01" fill-rule="evenodd" clip-rule="evenodd" d="M170.894 136.759C171.168 136.803 171.443 136.847 171.717 136.891C171.728 137.731 171.365 138.236 170.629 138.406C170.717 137.857 170.805 137.308 170.894 136.759Z" fill="#231F20"/>
<path opacity="0.01" fill-rule="evenodd" clip-rule="evenodd" d="M112.962 129.145C113.972 129.871 113.972 129.871 112.962 129.145V129.145Z" fill="#231F20"/>
<path opacity="0.01" fill-rule="evenodd" clip-rule="evenodd" d="M169.805 138.274C170.08 138.318 170.355 138.362 170.629 138.406C170.388 138.934 170.113 138.89 169.805 138.274Z" fill="#0A0C26"/>
<path opacity="0.01" fill-rule="evenodd" clip-rule="evenodd" d="M195.211 143.199C194.838 142.013 194.838 142.013 195.211 143.199V143.199Z" fill="#070A24"/>
<path opacity="0.01" fill-rule="evenodd" clip-rule="evenodd" d="M81.3919 125.765C81.1174 125.721 80.8427 125.677 80.5681 125.633C81.1956 123.48 81.4702 123.524 81.3919 125.765Z" fill="#231F20"/>
<path opacity="0.01" fill-rule="evenodd" clip-rule="evenodd" d="M80.5681 125.633C79.9306 126.094 79.9306 126.094 80.5681 125.633V125.633Z" fill="#231F20"/>
<path opacity="0.01" fill-rule="evenodd" clip-rule="evenodd" d="M111.873 130.661C112.883 131.386 112.883 131.386 111.873 130.661V130.661Z" fill="#090924"/>
<path opacity="0.01" fill-rule="evenodd" clip-rule="evenodd" d="M137.279 135.586C136.487 135.123 136.438 134.552 137.132 133.872C137.436 134.422 137.485 134.994 137.279 135.586Z" fill="#231F20"/>
<path opacity="0.01" fill-rule="evenodd" clip-rule="evenodd" d="M168.717 139.79C169.727 140.515 169.727 140.515 168.717 139.79V139.79Z" fill="#231F20"/>
<path opacity="0.01" fill-rule="evenodd" clip-rule="evenodd" d="M194.123 144.715C193.75 143.528 193.75 143.528 194.123 144.715V144.715Z" fill="#080928"/>
<path opacity="0.01" fill-rule="evenodd" clip-rule="evenodd" d="M210.732 146.537C211.741 147.262 211.741 147.262 210.732 146.537V146.537Z" fill="#231F20"/>
<path opacity="0.01" fill-rule="evenodd" clip-rule="evenodd" d="M110.917 131.352C111.191 131.396 111.467 131.44 111.741 131.484C111.5 132.012 111.225 131.968 110.917 131.352Z" fill="#090A22"/>
<path opacity="0.01" fill-rule="evenodd" clip-rule="evenodd" d="M193.299 144.582C192.661 145.044 192.661 145.044 193.299 144.582V144.582Z" fill="#050722"/>
<path opacity="0.01" fill-rule="evenodd" clip-rule="evenodd" d="M79.3474 127.972C78.9745 126.786 78.9745 126.786 79.3474 127.972V127.972Z" fill="#231F20"/>
<path opacity="0.01" fill-rule="evenodd" clip-rule="evenodd" d="M136.191 137.101C135.818 135.915 135.818 135.915 136.191 137.101V137.101Z" fill="#080925"/>
<path opacity="0.01" fill-rule="evenodd" clip-rule="evenodd" d="M167.628 141.305C168.638 142.031 168.638 142.031 167.628 141.305V141.305Z" fill="#080923"/>
<path opacity="0.01" fill-rule="evenodd" clip-rule="evenodd" d="M211.291 148.317C212.301 149.043 212.301 149.043 211.291 148.317V148.317Z" fill="#080920"/>
<path opacity="0.01" fill-rule="evenodd" clip-rule="evenodd" d="M109.829 132.867C110.839 133.593 110.839 133.593 109.829 132.867V132.867Z" fill="#0A0A26"/>
<path opacity="0.01" fill-rule="evenodd" clip-rule="evenodd" d="M135.367 136.969C134.729 137.43 134.729 137.43 135.367 136.969V136.969Z" fill="#06061F"/>
<path opacity="0.01" fill-rule="evenodd" clip-rule="evenodd" d="M166.672 141.996C166.947 142.04 167.222 142.084 167.496 142.128C167.255 142.656 166.98 142.612 166.672 141.996Z" fill="#231F20"/>
<path opacity="0.01" fill-rule="evenodd" clip-rule="evenodd" d="M192.078 146.922C191.705 145.735 191.705 145.735 192.078 146.922V146.922Z" fill="#231F20"/>
<path opacity="0.01" fill-rule="evenodd" clip-rule="evenodd" d="M108.74 134.383C109.75 135.109 109.75 135.109 108.74 134.383V134.383Z" fill="#231F20"/>
<path opacity="0.01" fill-rule="evenodd" clip-rule="evenodd" d="M133.455 138.352C134.465 139.077 134.465 139.077 133.455 138.352V138.352Z" fill="#060723"/>
<path opacity="0.01" fill-rule="evenodd" clip-rule="evenodd" d="M165.584 143.512C166.594 144.238 166.506 144.786 165.319 145.159C165.407 144.61 165.495 144.061 165.584 143.512Z" fill="#07071F"/>
<path opacity="0.01" fill-rule="evenodd" clip-rule="evenodd" d="M213.101 152.833C212.826 152.789 212.551 152.745 212.277 152.701C212.904 150.548 213.179 150.592 213.101 152.833Z" fill="#0A0B23"/>
<path opacity="0.01" fill-rule="evenodd" clip-rule="evenodd" d="M107.784 135.074C108.059 135.118 108.334 135.162 108.608 135.207C108.618 136.047 108.255 136.551 107.52 136.722C107.608 136.172 107.696 135.624 107.784 135.074Z" fill="#060921"/>
<path opacity="0.01" fill-rule="evenodd" clip-rule="evenodd" d="M164.495 145.027C164.77 145.071 165.045 145.115 165.319 145.159C165.078 145.687 164.803 145.642 164.495 145.027Z" fill="#090B22"/>
<path opacity="0.01" fill-rule="evenodd" clip-rule="evenodd" d="M189.901 149.952C189.627 149.908 189.352 149.864 189.078 149.82C189.705 147.667 189.98 147.711 189.901 149.952Z" fill="#231F20"/>
<path opacity="0.01" fill-rule="evenodd" clip-rule="evenodd" d="M106.696 136.589C106.97 136.633 107.245 136.678 107.519 136.722C107.278 137.249 107.003 137.205 106.696 136.589Z" fill="#231F20"/>
<path opacity="0.01" fill-rule="evenodd" clip-rule="evenodd" d="M189.078 149.82C188.44 150.281 188.44 150.281 189.078 149.82V149.82Z" fill="#231F20"/>
<path opacity="0.01" fill-rule="evenodd" clip-rule="evenodd" d="M213.101 152.833C213.893 153.296 213.942 153.866 213.248 154.547C212.944 153.996 212.895 153.424 213.101 152.833Z" fill="#07061F"/>
<path opacity="0.01" fill-rule="evenodd" clip-rule="evenodd" d="M131.969 142.339C131.695 142.295 131.42 142.25 131.146 142.206C131.773 140.053 132.048 140.098 131.969 142.339Z" fill="#0A0A25"/>
<path opacity="0.01" fill-rule="evenodd" clip-rule="evenodd" d="M163.407 146.542C164.417 147.268 164.417 147.268 163.407 146.542V146.542Z" fill="#060525"/>
<path opacity="0.01" fill-rule="evenodd" clip-rule="evenodd" d="M105.607 138.105C106.617 138.831 106.617 138.831 105.607 138.105V138.105Z" fill="#090A24"/>
<path opacity="0.01" fill-rule="evenodd" clip-rule="evenodd" d="M131.146 142.206C130.508 142.668 130.508 142.668 131.146 142.206V142.206Z" fill="#231F20"/>
<path opacity="0.01" fill-rule="evenodd" clip-rule="evenodd" d="M187.857 152.159C187.484 150.972 187.484 150.972 187.857 152.159V152.159Z" fill="#231F20"/>
<path opacity="0.01" fill-rule="evenodd" clip-rule="evenodd" d="M74.0376 134.725C73.6647 133.539 73.6647 133.539 74.0376 134.725V134.725Z" fill="#231F20"/>
<path opacity="0.01" fill-rule="evenodd" clip-rule="evenodd" d="M162.318 148.058C163.328 148.783 163.328 148.783 162.318 148.058V148.058Z" fill="#231F20"/>
<path opacity="0.01" fill-rule="evenodd" clip-rule="evenodd" d="M104.519 139.62C105.529 140.346 105.529 140.346 104.519 139.62V139.62Z" fill="#231F20"/>
<path opacity="0.01" fill-rule="evenodd" clip-rule="evenodd" d="M129.925 144.546C129.552 143.359 129.552 143.359 129.925 144.546V144.546Z" fill="#090924"/>
<path opacity="0.01" fill-rule="evenodd" clip-rule="evenodd" d="M161.362 148.749C161.637 148.793 161.912 148.837 162.186 148.881C161.945 149.409 161.67 149.365 161.362 148.749Z" fill="#231F20"/>
<path opacity="0.01" fill-rule="evenodd" clip-rule="evenodd" d="M186.768 153.674C186.395 152.488 186.395 152.488 186.768 153.674V153.674Z" fill="#0A0A24"/>
<path opacity="0.01" fill-rule="evenodd" clip-rule="evenodd" d="M213.263 157.084C213.951 158.706 213.824 160.375 212.881 162.093C212.734 160.402 212.861 158.733 213.263 157.084Z" fill="#080821"/>
<path opacity="0.01" fill-rule="evenodd" clip-rule="evenodd" d="M72.2577 135.284C72.8657 137.466 72.6501 139.685 71.6112 141.941C71.5515 139.696 71.767 137.476 72.2577 135.284Z" fill="#231F20"/>
<path opacity="0.01" fill-rule="evenodd" clip-rule="evenodd" d="M128.837 146.061C128.463 144.874 128.463 144.874 128.837 146.061V146.061Z" fill="#0A0925"/>
<path opacity="0.01" fill-rule="evenodd" clip-rule="evenodd" d="M160.274 150.264C161.284 150.99 161.284 150.99 160.274 150.264V150.264Z" fill="#07071E"/>
<path opacity="0.01" fill-rule="evenodd" clip-rule="evenodd" d="M185.68 155.19C185.307 154.003 185.307 154.003 185.68 155.19V155.19Z" fill="#231F20"/>
<path opacity="0.01" fill-rule="evenodd" clip-rule="evenodd" d="M184.856 155.057C184.218 155.519 184.218 155.519 184.856 155.057V155.057Z" fill="#070923"/>
<path opacity="0.01" fill-rule="evenodd" clip-rule="evenodd" d="M102.474 141.827C103.485 142.553 103.396 143.102 102.21 143.475C102.298 142.925 102.386 142.377 102.474 141.827Z" fill="#07081F"/>
<path opacity="0.01" fill-rule="evenodd" clip-rule="evenodd" d="M127.748 147.576C127.375 146.389 127.375 146.389 127.748 147.576V147.576Z" fill="#231F20"/>
<path opacity="0.01" fill-rule="evenodd" clip-rule="evenodd" d="M159.186 151.78C160.195 152.506 160.195 152.506 159.186 151.78V151.78Z" fill="#080821"/>
<path opacity="0.01" fill-rule="evenodd" clip-rule="evenodd" d="M101.386 143.342C101.66 143.386 101.935 143.43 102.21 143.475C101.968 144.002 101.694 143.958 101.386 143.342Z" fill="#090A25"/>
<path opacity="0.01" fill-rule="evenodd" clip-rule="evenodd" d="M126.924 147.444C126.287 147.905 126.287 147.905 126.924 147.444V147.444Z" fill="#070921"/>
<path opacity="0.01" fill-rule="evenodd" clip-rule="evenodd" d="M158.097 153.295C159.107 154.021 159.107 154.021 158.097 153.295V153.295Z" fill="#080824"/>
<path opacity="0.01" fill-rule="evenodd" clip-rule="evenodd" d="M100.297 144.858C101.308 145.584 101.308 145.584 100.297 144.858V144.858Z" fill="#231F20"/>
<path opacity="0.01" fill-rule="evenodd" clip-rule="evenodd" d="M125.704 149.783C125.33 148.596 125.33 148.596 125.704 149.783V149.783Z" fill="#231F20"/>
<path opacity="0.01" fill-rule="evenodd" clip-rule="evenodd" d="M157.141 153.987C157.415 154.031 157.69 154.075 157.965 154.119C157.975 154.959 157.612 155.464 156.876 155.634C156.965 155.085 157.053 154.536 157.141 153.987Z" fill="#231F20"/>
<path opacity="0.01" fill-rule="evenodd" clip-rule="evenodd" d="M99.2091 146.373C100.219 147.099 100.219 147.099 99.2091 146.373V146.373Z" fill="#050620"/>
<path opacity="0.01" fill-rule="evenodd" clip-rule="evenodd" d="M156.053 155.502C156.327 155.546 156.602 155.59 156.876 155.634C156.635 156.162 156.36 156.118 156.053 155.502Z" fill="#231F20"/>
<path opacity="0.01" fill-rule="evenodd" clip-rule="evenodd" d="M72.7145 142.963C72.0771 143.424 72.0771 143.424 72.7145 142.963V142.963Z" fill="#080923"/>
<path opacity="0.01" fill-rule="evenodd" clip-rule="evenodd" d="M98.2529 147.064C98.5275 147.109 98.8022 147.153 99.0767 147.197C98.8355 147.724 98.5608 147.68 98.2529 147.064Z" fill="#231F20"/>
<path opacity="0.01" fill-rule="evenodd" clip-rule="evenodd" d="M211.248 164.366C212.04 164.829 212.09 165.399 211.396 166.08C211.092 165.529 211.043 164.958 211.248 164.366Z" fill="#050621"/>
<path opacity="0.01" fill-rule="evenodd" clip-rule="evenodd" d="M154.964 157.017C155.974 157.743 155.974 157.743 154.964 157.017V157.017Z" fill="#070826"/>
<path opacity="0.01" fill-rule="evenodd" clip-rule="evenodd" d="M73.2737 144.743C72.6363 145.205 72.6363 145.205 73.2737 144.743V144.743Z" fill="#080921"/>
<path opacity="0.01" fill-rule="evenodd" clip-rule="evenodd" d="M97.1646 148.58C98.1747 149.306 98.1747 149.306 97.1646 148.58V148.58Z" fill="#231F20"/>
<path opacity="0.01" fill-rule="evenodd" clip-rule="evenodd" d="M179.414 162.634C179.041 161.448 179.041 161.448 179.414 162.634V162.634Z" fill="#070926"/>
<path opacity="0.01" fill-rule="evenodd" clip-rule="evenodd" d="M154.008 157.709C154.282 157.753 154.558 157.797 154.832 157.841C154.842 158.681 154.479 159.186 153.743 159.357C153.832 158.807 153.92 158.258 154.008 157.709Z" fill="#231F20"/>
<path opacity="0.01" fill-rule="evenodd" clip-rule="evenodd" d="M209.763 168.353C209.753 167.727 209.979 167.2 210.44 166.772C210.886 167.635 210.66 168.162 209.763 168.353Z" fill="#05061E"/>
<path opacity="0.01" fill-rule="evenodd" clip-rule="evenodd" d="M73.0092 146.391C74.0193 147.117 74.0193 147.117 73.0092 146.391V146.391Z" fill="#090922"/>
<path opacity="0.01" fill-rule="evenodd" clip-rule="evenodd" d="M96.076 150.095C97.0862 150.821 97.0862 150.821 96.076 150.095V150.095Z" fill="#231F20"/>
<path opacity="0.01" fill-rule="evenodd" clip-rule="evenodd" d="M121.482 155.021C121.109 153.834 121.109 153.834 121.482 155.021V155.021Z" fill="#090925"/>
<path opacity="0.01" fill-rule="evenodd" clip-rule="evenodd" d="M152.92 159.224C153.194 159.268 153.469 159.312 153.743 159.356C153.502 159.884 153.227 159.84 152.92 159.224Z" fill="#090A21"/>
<path opacity="0.01" fill-rule="evenodd" clip-rule="evenodd" d="M208.939 168.221C209.214 168.265 209.489 168.309 209.763 168.353C209.522 168.88 209.247 168.836 208.939 168.221Z" fill="#080A21"/>
<path opacity="0.01" fill-rule="evenodd" clip-rule="evenodd" d="M74.2599 149.127C73.887 147.941 73.887 147.941 74.2599 149.127V149.127Z" fill="#040621"/>
<path opacity="0.01" fill-rule="evenodd" clip-rule="evenodd" d="M95.12 150.787C95.3946 150.831 95.6692 150.875 95.9438 150.919C95.9539 151.759 95.5912 152.263 94.8554 152.434C94.9436 151.885 95.0317 151.336 95.12 150.787Z" fill="#231F20"/>
<path opacity="0.01" fill-rule="evenodd" clip-rule="evenodd" d="M151.831 160.739C152.841 161.465 152.841 161.465 151.831 160.739V160.739Z" fill="#231F20"/>
<path opacity="0.01" fill-rule="evenodd" clip-rule="evenodd" d="M74.2599 149.127C74.5345 149.171 74.8091 149.215 75.0837 149.259C74.8424 149.787 74.5677 149.743 74.2599 149.127Z" fill="#080827"/>
<path opacity="0.01" fill-rule="evenodd" clip-rule="evenodd" d="M94.0316 152.302C94.3062 152.346 94.5809 152.39 94.8554 152.435C94.6141 152.962 94.3395 152.918 94.0316 152.302Z" fill="#090922"/>
<path opacity="0.01" fill-rule="evenodd" clip-rule="evenodd" d="M207.851 169.736C208.643 170.199 208.692 170.77 207.998 171.45C207.695 170.899 207.645 170.328 207.851 169.736Z" fill="#090A22"/>
<path opacity="0.01" fill-rule="evenodd" clip-rule="evenodd" d="M119.305 158.051C119.031 158.007 118.756 157.963 118.482 157.919C119.109 155.766 119.384 155.81 119.305 158.051Z" fill="#231F20"/>
<path opacity="0.01" fill-rule="evenodd" clip-rule="evenodd" d="M150.743 162.255C151.753 162.981 151.753 162.981 150.743 162.255V162.255Z" fill="#231F20"/>
<path opacity="0.01" fill-rule="evenodd" clip-rule="evenodd" d="M75.6429 151.039C75.0054 151.501 75.0054 151.501 75.6429 151.039V151.039Z" fill="#060925"/>
<path opacity="0.01" fill-rule="evenodd" clip-rule="evenodd" d="M92.9431 153.817C93.9533 154.543 93.9533 154.543 92.9431 153.817V153.817Z" fill="#231F20"/>
<path opacity="0.01" fill-rule="evenodd" clip-rule="evenodd" d="M118.482 157.919C117.844 158.38 117.844 158.38 118.482 157.919V157.919Z" fill="#060725"/>
<path opacity="0.01" fill-rule="evenodd" clip-rule="evenodd" d="M206.63 172.075C207.64 172.801 207.64 172.801 206.63 172.075V172.075Z" fill="#231F20"/>
<path opacity="0.01" fill-rule="evenodd" clip-rule="evenodd" d="M149.787 162.946C150.061 162.99 150.336 163.035 150.61 163.079C150.621 163.919 150.258 164.423 149.522 164.594C149.61 164.044 149.698 163.496 149.787 162.946Z" fill="#060620"/>
<path opacity="0.01" fill-rule="evenodd" clip-rule="evenodd" d="M91.9871 154.509C92.2616 154.553 92.5363 154.597 92.8109 154.641C92.821 155.481 92.4582 155.986 91.7225 156.156C91.8107 155.607 91.8988 155.058 91.9871 154.509Z" fill="#231F20"/>
<path opacity="0.01" fill-rule="evenodd" clip-rule="evenodd" d="M148.698 164.461C148.973 164.505 149.248 164.55 149.522 164.594C149.281 165.121 149.006 165.077 148.698 164.461Z" fill="#0B0B26"/>
<path opacity="0.01" fill-rule="evenodd" clip-rule="evenodd" d="M174.104 169.387C173.83 169.343 173.555 169.298 173.281 169.254C173.908 167.101 174.183 167.145 174.104 169.387Z" fill="#070923"/>
<path opacity="0.01" fill-rule="evenodd" clip-rule="evenodd" d="M205.674 172.767C205.948 172.811 206.224 172.855 206.498 172.899C206.508 173.739 206.145 174.243 205.409 174.414C205.498 173.865 205.586 173.316 205.674 172.767Z" fill="#060723"/>
<path opacity="0.01" fill-rule="evenodd" clip-rule="evenodd" d="M173.281 169.255C172.643 169.716 172.643 169.716 173.281 169.255V169.255Z" fill="#060622"/>
<path opacity="0.01" fill-rule="evenodd" clip-rule="evenodd" d="M76.8936 153.775C76.8054 154.325 76.7173 154.874 76.629 155.423C75.6189 154.697 75.707 154.148 76.8936 153.775Z" fill="#070820"/>
<path opacity="0.01" fill-rule="evenodd" clip-rule="evenodd" d="M90.8986 156.024C91.1731 156.069 91.4478 156.113 91.7224 156.157C91.7325 156.997 91.3697 157.501 90.634 157.672C90.7222 157.123 90.8103 156.574 90.8986 156.024Z" fill="#231F20"/>
<path opacity="0.01" fill-rule="evenodd" clip-rule="evenodd" d="M116.172 161.774C115.38 161.311 115.331 160.74 116.025 160.06C116.329 160.61 116.378 161.182 116.172 161.774Z" fill="#070921"/>
<path opacity="0.01" fill-rule="evenodd" clip-rule="evenodd" d="M147.61 165.977C148.62 166.703 148.62 166.703 147.61 165.977V165.977Z" fill="#080825"/>
<path opacity="0.01" fill-rule="evenodd" clip-rule="evenodd" d="M204.586 174.282C204.86 174.326 205.135 174.37 205.41 174.414C205.42 175.254 205.057 175.758 204.321 175.929C204.409 175.38 204.497 174.831 204.586 174.282Z" fill="#07061F"/>
<path opacity="0.01" fill-rule="evenodd" clip-rule="evenodd" d="M76.629 155.423C76.9036 155.467 77.1783 155.511 77.4528 155.555C77.2116 156.083 76.9369 156.038 76.629 155.423Z" fill="#090B24"/>
<path opacity="0.01" fill-rule="evenodd" clip-rule="evenodd" d="M89.8102 157.54C90.0848 157.584 90.3594 157.628 90.634 157.672C90.3927 158.199 90.118 158.155 89.8102 157.54Z" fill="#231F20"/>
<path opacity="0.01" fill-rule="evenodd" clip-rule="evenodd" d="M172.06 171.593C171.687 170.407 171.687 170.407 172.06 171.593V171.593Z" fill="#231F20"/>
<path opacity="0.01" fill-rule="evenodd" clip-rule="evenodd" d="M203.497 175.797C203.772 175.841 204.047 175.886 204.321 175.93C204.08 176.457 203.805 176.413 203.497 175.797Z" fill="#231F20"/>
<path opacity="0.01" fill-rule="evenodd" clip-rule="evenodd" d="M146.521 167.492C147.531 168.218 147.531 168.218 146.521 167.492V167.492Z" fill="#060723"/>
<path opacity="0.01" fill-rule="evenodd" clip-rule="evenodd" d="M88.7218 159.055C89.732 159.781 89.732 159.781 88.7218 159.055V159.055Z" fill="#060722"/>
<path opacity="0.01" fill-rule="evenodd" clip-rule="evenodd" d="M145.565 168.184C145.84 168.228 146.115 168.272 146.389 168.316C146.148 168.843 145.873 168.799 145.565 168.184Z" fill="#070927"/>
<path opacity="0.01" fill-rule="evenodd" clip-rule="evenodd" d="M202.409 177.312C203.419 178.038 203.419 178.038 202.409 177.312V177.312Z" fill="#231F20"/>
<path opacity="0.01" fill-rule="evenodd" clip-rule="evenodd" d="M78.7037 158.291C78.6154 158.84 78.5273 159.389 78.4391 159.939C77.4289 159.213 77.517 158.664 78.7037 158.291Z" fill="#231F20"/>
<path opacity="0.01" fill-rule="evenodd" clip-rule="evenodd" d="M87.6333 160.57C88.6435 161.296 88.6435 161.296 87.6333 160.57V160.57Z" fill="#231F20"/>
<path opacity="0.01" fill-rule="evenodd" clip-rule="evenodd" d="M113.039 165.496C112.666 164.309 112.666 164.309 113.039 165.496V165.496Z" fill="#050624"/>
<path opacity="0.01" fill-rule="evenodd" clip-rule="evenodd" d="M144.477 169.699C145.487 170.425 145.487 170.425 144.477 169.699V169.699Z" fill="#231F20"/>
<path opacity="0.01" fill-rule="evenodd" clip-rule="evenodd" d="M169.883 174.624C169.609 174.58 169.333 174.536 169.059 174.492C169.686 172.339 169.961 172.383 169.883 174.624Z" fill="#231F20"/>
<path opacity="0.01" fill-rule="evenodd" clip-rule="evenodd" d="M201.453 178.004C201.727 178.048 202.002 178.093 202.276 178.137C202.287 178.977 201.924 179.481 201.188 179.652C201.276 179.103 201.364 178.554 201.453 178.004Z" fill="#080B21"/>
<path opacity="0.01" fill-rule="evenodd" clip-rule="evenodd" d="M78.439 159.939C78.7135 159.983 78.9882 160.027 79.2628 160.071C79.0215 160.599 78.7468 160.555 78.439 159.939Z" fill="#070824"/>
<path opacity="0.01" fill-rule="evenodd" clip-rule="evenodd" d="M86.6772 161.262C86.9518 161.306 87.2265 161.35 87.5011 161.394C87.2598 161.921 86.9851 161.877 86.6772 161.262Z" fill="#080920"/>
<path opacity="0.01" fill-rule="evenodd" clip-rule="evenodd" d="M169.059 174.492C168.421 174.953 168.421 174.953 169.059 174.492V174.492Z" fill="#231F20"/>
<path opacity="0.01" fill-rule="evenodd" clip-rule="evenodd" d="M200.364 179.52C200.639 179.564 200.914 179.608 201.188 179.652C200.947 180.179 200.672 180.135 200.364 179.52Z" fill="#090A21"/>
<path opacity="0.01" fill-rule="evenodd" clip-rule="evenodd" d="M143.388 171.214C144.398 171.94 144.398 171.94 143.388 171.214V171.214Z" fill="#231F20"/>
<path opacity="0.01" fill-rule="evenodd" clip-rule="evenodd" d="M79.8221 161.851C79.1846 162.313 79.1846 162.313 79.8221 161.851V161.851Z" fill="#080824"/>
<path opacity="0.01" fill-rule="evenodd" clip-rule="evenodd" d="M199.276 181.035C200.286 181.761 200.286 181.761 199.276 181.035V181.035Z" fill="#090925"/>
<path opacity="0.01" fill-rule="evenodd" clip-rule="evenodd" d="M83.8088 163.336C84.819 164.062 84.819 164.062 83.8088 163.336V163.336Z" fill="#0A0B23"/>
<path opacity="0.01" fill-rule="evenodd" clip-rule="evenodd" d="M110.863 168.526C110.588 168.482 110.313 168.438 110.039 168.394C110.666 166.241 110.941 166.285 110.863 168.526Z" fill="#090822"/>
<path opacity="0.01" fill-rule="evenodd" clip-rule="evenodd" d="M142.432 171.906C142.707 171.95 142.982 171.994 143.256 172.039C143.267 172.879 142.903 173.383 142.168 173.554C142.256 173.004 142.344 172.456 142.432 171.906Z" fill="#231F20"/>
<path opacity="0.01" fill-rule="evenodd" clip-rule="evenodd" d="M82.8528 164.028C83.1274 164.072 83.402 164.116 83.6766 164.16C83.4353 164.688 83.1606 164.643 82.8528 164.028Z" fill="#060824"/>
<path opacity="0.01" fill-rule="evenodd" clip-rule="evenodd" d="M110.039 168.394C109.401 168.855 109.401 168.855 110.039 168.394V168.394Z" fill="#060722"/>
<path opacity="0.01" fill-rule="evenodd" clip-rule="evenodd" d="M141.344 173.421C141.618 173.465 141.893 173.51 142.168 173.554C141.927 174.081 141.651 174.037 141.344 173.421Z" fill="#231F20"/>
<path opacity="0.01" fill-rule="evenodd" clip-rule="evenodd" d="M198.187 182.55C199.197 183.276 199.197 183.276 198.187 182.55V182.55Z" fill="#231F20"/>
<path opacity="0.01" fill-rule="evenodd" clip-rule="evenodd" d="M81.0728 164.587C82.0829 165.313 82.0829 165.313 81.0728 164.587V164.587Z" fill="#06061E"/>
<path opacity="0.01" fill-rule="evenodd" clip-rule="evenodd" d="M197.231 183.242C197.506 183.286 197.781 183.33 198.055 183.374C198.066 184.214 197.702 184.718 196.967 184.889C197.055 184.34 197.143 183.791 197.231 183.242Z" fill="#231F20"/>
<path opacity="0.01" fill-rule="evenodd" clip-rule="evenodd" d="M108.818 170.733C108.445 169.547 108.445 169.547 108.818 170.733V170.733Z" fill="#231F20"/>
<path opacity="0.01" fill-rule="evenodd" clip-rule="evenodd" d="M140.255 174.937C141.265 175.662 141.265 175.662 140.255 174.937V174.937Z" fill="#060621"/>
<path opacity="0.01" fill-rule="evenodd" clip-rule="evenodd" d="M196.143 184.757C196.417 184.801 196.692 184.845 196.967 184.889C196.726 185.417 196.45 185.372 196.143 184.757Z" fill="#090A25"/>
<path opacity="0.01" fill-rule="evenodd" clip-rule="evenodd" d="M107.73 172.248C107.356 171.062 107.356 171.062 107.73 172.248V172.248Z" fill="#090924"/>
<path opacity="0.01" fill-rule="evenodd" clip-rule="evenodd" d="M139.299 175.628C139.574 175.672 139.849 175.717 140.123 175.761C140.134 176.601 139.77 177.105 139.035 177.276C139.123 176.727 139.211 176.178 139.299 175.628Z" fill="#060620"/>
<path opacity="0.01" fill-rule="evenodd" clip-rule="evenodd" d="M138.211 177.144C138.485 177.188 138.76 177.232 139.035 177.276C138.794 177.803 138.519 177.759 138.211 177.144Z" fill="#231F20"/>
<path opacity="0.01" fill-rule="evenodd" clip-rule="evenodd" d="M163.617 182.069C163.244 180.882 163.244 180.882 163.617 182.069V182.069Z" fill="#231F20"/>
<path opacity="0.01" fill-rule="evenodd" clip-rule="evenodd" d="M195.054 186.272C196.064 186.998 196.064 186.998 195.054 186.272V186.272Z" fill="#060724"/>
<path opacity="0.01" fill-rule="evenodd" clip-rule="evenodd" d="M106.641 173.764C106.268 172.577 106.268 172.577 106.641 173.764V173.764Z" fill="#231F20"/>
<path opacity="0.01" fill-rule="evenodd" clip-rule="evenodd" d="M105.817 173.632C105.18 174.093 105.18 174.093 105.817 173.632V173.632Z" fill="#231F20"/>
<path opacity="0.01" fill-rule="evenodd" clip-rule="evenodd" d="M137.123 178.659C138.132 179.385 138.132 179.385 137.123 178.659V178.659Z" fill="#06061F"/>
<path opacity="0.01" fill-rule="evenodd" clip-rule="evenodd" d="M162.529 183.584C162.155 182.398 162.155 182.398 162.529 183.584V183.584Z" fill="#080926"/>
<path opacity="0.01" fill-rule="evenodd" clip-rule="evenodd" d="M193.966 187.788C194.976 188.513 194.976 188.513 193.966 187.788V187.788Z" fill="#231F20"/>
<path opacity="0.01" fill-rule="evenodd" clip-rule="evenodd" d="M161.705 183.452C161.067 183.913 161.067 183.913 161.705 183.452V183.452Z" fill="#050620"/>
<path opacity="0.01" fill-rule="evenodd" clip-rule="evenodd" d="M193.01 188.479C193.284 188.523 193.559 188.567 193.834 188.611C193.593 189.139 193.318 189.095 193.01 188.479Z" fill="#231F20"/>
<path opacity="0.01" fill-rule="evenodd" clip-rule="evenodd" d="M104.597 175.97C104.223 174.784 104.223 174.784 104.597 175.97V175.97Z" fill="#080824"/>
<path opacity="0.01" fill-rule="evenodd" clip-rule="evenodd" d="M136.166 179.351C136.441 179.395 136.716 179.439 136.99 179.483C137.001 180.323 136.637 180.827 135.902 180.998C135.99 180.449 136.078 179.9 136.166 179.351Z" fill="#090825"/>
<path opacity="0.01" fill-rule="evenodd" clip-rule="evenodd" d="M135.078 180.866C135.352 180.91 135.627 180.954 135.902 180.998C135.661 181.526 135.386 181.481 135.078 180.866Z" fill="#231F20"/>
<path opacity="0.01" fill-rule="evenodd" clip-rule="evenodd" d="M159.792 184.835C160.802 185.561 160.802 185.561 159.792 184.835V184.835Z" fill="#080821"/>
<path opacity="0.01" fill-rule="evenodd" clip-rule="evenodd" d="M191.922 189.995C192.931 190.72 192.843 191.269 191.657 191.642C191.745 191.093 191.833 190.544 191.922 189.995Z" fill="#05071F"/>
<path opacity="0.01" fill-rule="evenodd" clip-rule="evenodd" d="M133.99 182.381C134.999 183.107 134.999 183.107 133.99 182.381V182.381Z" fill="#07071F"/>
<path opacity="0.01" fill-rule="evenodd" clip-rule="evenodd" d="M190.833 191.51C191.107 191.554 191.382 191.598 191.657 191.642C191.416 192.17 191.141 192.125 190.833 191.51Z" fill="#090A22"/>
<path opacity="0.01" fill-rule="evenodd" clip-rule="evenodd" d="M102.42 179.001C102.145 178.957 101.87 178.913 101.596 178.869C102.223 176.716 102.498 176.76 102.42 179.001Z" fill="#090A24"/>
<path opacity="0.01" fill-rule="evenodd" clip-rule="evenodd" d="M101.596 178.869C100.958 179.33 100.958 179.33 101.596 178.869V178.869Z" fill="#070725"/>
<path opacity="0.01" fill-rule="evenodd" clip-rule="evenodd" d="M133.033 183.073C133.308 183.117 133.583 183.161 133.857 183.205C133.868 184.045 133.504 184.55 132.769 184.72C132.857 184.171 132.945 183.622 133.033 183.073Z" fill="#231F20"/>
<path opacity="0.01" fill-rule="evenodd" clip-rule="evenodd" d="M189.745 193.025C190.755 193.751 190.755 193.751 189.745 193.025V193.025Z" fill="#08081F"/>
<path opacity="0.01" fill-rule="evenodd" clip-rule="evenodd" d="M131.945 184.588C132.219 184.632 132.494 184.676 132.769 184.72C132.528 185.248 132.253 185.203 131.945 184.588Z" fill="#060922"/>
<path opacity="0.01" fill-rule="evenodd" clip-rule="evenodd" d="M100.375 181.208C100.002 180.022 100.002 180.022 100.375 181.208V181.208Z" fill="#070923"/>
<path opacity="0.01" fill-rule="evenodd" clip-rule="evenodd" d="M188.788 193.717C189.063 193.761 189.338 193.805 189.612 193.849C189.623 194.689 189.259 195.194 188.524 195.364C188.612 194.815 188.7 194.266 188.788 193.717Z" fill="#231F20"/>
<path opacity="0.01" fill-rule="evenodd" clip-rule="evenodd" d="M130.857 186.103C131.866 186.829 131.866 186.829 130.857 186.103V186.103Z" fill="#07071F"/>
<path opacity="0.01" fill-rule="evenodd" clip-rule="evenodd" d="M187.7 195.232C187.974 195.276 188.25 195.32 188.524 195.364C188.283 195.892 188.008 195.848 187.7 195.232Z" fill="#231F20"/>
<path opacity="0.01" fill-rule="evenodd" clip-rule="evenodd" d="M129.9 186.795C130.175 186.839 130.45 186.883 130.724 186.927C130.483 187.455 130.208 187.411 129.9 186.795Z" fill="#231F20"/>
<path opacity="0.01" fill-rule="evenodd" clip-rule="evenodd" d="M155.174 192.544C154.801 191.357 154.801 191.357 155.174 192.544V192.544Z" fill="#070922"/>
<path opacity="0.01" fill-rule="evenodd" clip-rule="evenodd" d="M186.612 196.748C187.622 197.473 187.622 197.473 186.612 196.748V196.748Z" fill="#231F20"/>
<path opacity="0.01" fill-rule="evenodd" clip-rule="evenodd" d="M128.812 188.31C129.822 189.036 129.734 189.585 128.547 189.958C128.636 189.408 128.724 188.86 128.812 188.31Z" fill="#060620"/>
<path opacity="0.01" fill-rule="evenodd" clip-rule="evenodd" d="M154.086 194.059C153.713 192.873 153.713 192.873 154.086 194.059V194.059Z" fill="#231F20"/>
<path opacity="0.01" fill-rule="evenodd" clip-rule="evenodd" d="M185.523 198.263C186.533 198.989 186.533 198.989 185.523 198.263V198.263Z" fill="#090822"/>
<path opacity="0.01" fill-rule="evenodd" clip-rule="evenodd" d="M153.262 193.927C152.624 194.388 152.624 194.388 153.262 193.927V193.927Z" fill="#231F20"/>
<path opacity="0.01" fill-rule="evenodd" clip-rule="evenodd" d="M184.567 198.954C184.841 198.998 185.117 199.042 185.391 199.086C185.15 199.614 184.875 199.57 184.567 198.954Z" fill="#231F20"/>
<path opacity="0.01" fill-rule="evenodd" clip-rule="evenodd" d="M127.724 189.826C127.998 189.87 128.273 189.914 128.547 189.958C128.558 190.798 128.195 191.302 127.459 191.473C127.547 190.924 127.635 190.375 127.724 189.826Z" fill="#231F20"/>
<path opacity="0.01" fill-rule="evenodd" clip-rule="evenodd" d="M152.041 196.266C151.668 195.079 151.668 195.079 152.041 196.266V196.266Z" fill="#231F20"/>
<path opacity="0.01" fill-rule="evenodd" clip-rule="evenodd" d="M183.479 200.47C184.489 201.196 184.489 201.196 183.479 200.47V200.47Z" fill="#231F20"/>
<path opacity="0.01" fill-rule="evenodd" clip-rule="evenodd" d="M95.0654 187.961C94.6925 186.775 94.6925 186.775 95.0654 187.961V187.961Z" fill="#070825"/>
<path opacity="0.01" fill-rule="evenodd" clip-rule="evenodd" d="M126.635 191.341C126.909 191.385 127.185 191.429 127.459 191.473C126.655 194.724 126.38 194.68 126.635 191.341Z" fill="#070820"/>
<path opacity="0.01" fill-rule="evenodd" clip-rule="evenodd" d="M182.39 201.985C183.4 202.711 183.4 202.711 182.39 201.985V201.985Z" fill="#080823"/>
<path opacity="0.01" fill-rule="evenodd" clip-rule="evenodd" d="M93.2855 188.52C93.8936 190.702 93.678 192.921 92.639 195.177C92.5793 192.931 92.7948 190.712 93.2855 188.52Z" fill="#231F20"/>
<path opacity="0.01" fill-rule="evenodd" clip-rule="evenodd" d="M181.434 202.676C181.709 202.72 181.984 202.765 182.258 202.809C182.268 203.649 181.905 204.153 181.17 204.324C181.258 203.774 181.346 203.226 181.434 202.676Z" fill="#231F20"/>
<path opacity="0.01" fill-rule="evenodd" clip-rule="evenodd" d="M180.346 204.192C180.62 204.236 180.895 204.28 181.17 204.324C180.928 204.852 180.653 204.807 180.346 204.192Z" fill="#231F20"/>
<path opacity="0.01" fill-rule="evenodd" clip-rule="evenodd" d="M125.282 194.504C125.849 196.964 125.589 199.458 124.503 201.984C124.488 199.462 124.747 196.968 125.282 194.504Z" fill="#060620"/>
<path opacity="0.01" fill-rule="evenodd" clip-rule="evenodd" d="M147.82 201.504C147.447 200.317 147.447 200.317 147.82 201.504V201.504Z" fill="#060722"/>
<path opacity="0.01" fill-rule="evenodd" clip-rule="evenodd" d="M179.257 205.707C180.267 206.433 180.267 206.433 179.257 205.707V205.707Z" fill="#090A21"/>
<path opacity="0.01" fill-rule="evenodd" clip-rule="evenodd" d="M146.732 203.019C146.358 201.832 146.358 201.832 146.732 203.019V203.019Z" fill="#0A0C26"/>
<path opacity="0.01" fill-rule="evenodd" clip-rule="evenodd" d="M178.169 207.223C179.179 207.949 179.179 207.949 178.169 207.223V207.223Z" fill="#231F20"/>
<path opacity="0.01" fill-rule="evenodd" clip-rule="evenodd" d="M145.908 202.886C145.27 203.348 145.27 203.348 145.908 202.886V202.886Z" fill="#05071E"/>
<path opacity="0.01" fill-rule="evenodd" clip-rule="evenodd" d="M177.213 207.914C177.487 207.958 177.762 208.002 178.037 208.046C177.796 208.574 177.52 208.53 177.213 207.914Z" fill="#231F20"/>
<path opacity="0.01" fill-rule="evenodd" clip-rule="evenodd" d="M143.995 204.27C145.005 204.995 145.005 204.995 143.995 204.27V204.27Z" fill="#07081F"/>
<path opacity="0.01" fill-rule="evenodd" clip-rule="evenodd" d="M176.124 209.429C177.134 210.155 177.046 210.704 175.86 211.077C175.948 210.527 176.036 209.979 176.124 209.429Z" fill="#06071F"/>
<path opacity="0.01" fill-rule="evenodd" clip-rule="evenodd" d="M93.6102 197.023C93.5219 197.572 93.4338 198.121 93.3456 198.671C92.3354 197.945 92.4235 197.396 93.6102 197.023Z" fill="#231F20"/>
<path opacity="0.01" fill-rule="evenodd" clip-rule="evenodd" d="M175.036 210.945C175.31 210.989 175.585 211.033 175.86 211.077C175.619 211.605 175.344 211.56 175.036 210.945Z" fill="#080B27"/>
<path opacity="0.01" fill-rule="evenodd" clip-rule="evenodd" d="M124.783 202.874C125.575 203.337 125.624 203.908 124.93 204.588C124.627 204.037 124.577 203.466 124.783 202.874Z" fill="#050621"/>
<path opacity="0.01" fill-rule="evenodd" clip-rule="evenodd" d="M93.3455 198.671C93.6201 198.715 93.8947 198.759 94.1693 198.803C94.0811 199.353 93.9929 199.901 93.9047 200.451C93.2594 200.058 93.0729 199.465 93.3455 198.671Z" fill="#231F20"/>
<path opacity="0.01" fill-rule="evenodd" clip-rule="evenodd" d="M142.51 208.256C141.718 207.794 141.669 207.223 142.363 206.543C142.666 207.093 142.716 207.665 142.51 208.256Z" fill="#231F20"/>
<path opacity="0.01" fill-rule="evenodd" clip-rule="evenodd" d="M173.948 212.46C174.957 213.186 174.957 213.186 173.948 212.46V212.46Z" fill="#231F20"/>
<path opacity="0.01" fill-rule="evenodd" clip-rule="evenodd" d="M125.21 205.478C126.22 206.204 126.22 206.204 125.21 205.478V205.478Z" fill="#080824"/>
<path opacity="0.01" fill-rule="evenodd" clip-rule="evenodd" d="M93.9048 200.451C94.1794 200.495 94.454 200.539 94.7286 200.583C94.6404 201.132 94.5523 201.681 94.464 202.231C93.8187 201.838 93.6322 201.245 93.9048 200.451Z" fill="#231F20"/>
<path opacity="0.01" fill-rule="evenodd" clip-rule="evenodd" d="M172.859 213.975C173.869 214.701 173.869 214.701 172.859 213.975V213.975Z" fill="#050421"/>
<path opacity="0.01" fill-rule="evenodd" clip-rule="evenodd" d="M126.461 208.214C126.088 207.028 126.088 207.028 126.461 208.214V208.214Z" fill="#070824"/>
<path opacity="0.01" fill-rule="evenodd" clip-rule="evenodd" d="M171.903 214.667C172.177 214.711 172.452 214.755 172.727 214.799C172.486 215.327 172.211 215.283 171.903 214.667Z" fill="#080A28"/>
<path opacity="0.01" fill-rule="evenodd" clip-rule="evenodd" d="M94.464 202.23C94.7386 202.274 95.0135 202.319 95.2878 202.363C95.1996 202.912 95.1115 203.461 95.0232 204.01C94.3779 203.618 94.1914 203.025 94.464 202.23Z" fill="#060520"/>
<path opacity="0.01" fill-rule="evenodd" clip-rule="evenodd" d="M126.461 208.214C127.47 208.94 127.47 208.94 126.461 208.214V208.214Z" fill="#231F20"/>
<path opacity="0.01" fill-rule="evenodd" clip-rule="evenodd" d="M95.0232 204.01C95.2975 204.054 95.5727 204.098 95.847 204.143C95.606 204.67 95.3308 204.626 95.0232 204.01Z" fill="#090925"/>
<path opacity="0.01" fill-rule="evenodd" clip-rule="evenodd" d="M139.377 211.979C139.004 210.792 139.004 210.792 139.377 211.979V211.979Z" fill="#080A22"/>
<path opacity="0.01" fill-rule="evenodd" clip-rule="evenodd" d="M170.815 216.182C171.824 216.908 171.824 216.908 170.815 216.182V216.182Z" fill="#060722"/>
<path opacity="0.01" fill-rule="evenodd" clip-rule="evenodd" d="M96.4063 205.923C95.7685 206.384 95.7685 206.384 96.4063 205.923V205.923Z" fill="#231F20"/>
<path opacity="0.01" fill-rule="evenodd" clip-rule="evenodd" d="M169.726 217.698C170.736 218.424 170.736 218.424 169.726 217.698V217.698Z" fill="#231F20"/>
<path opacity="0.01" fill-rule="evenodd" clip-rule="evenodd" d="M128.403 211.906C129.413 212.632 129.413 212.632 128.403 211.906V211.906Z" fill="#090823"/>
<path opacity="0.01" fill-rule="evenodd" clip-rule="evenodd" d="M168.77 218.389C169.044 218.433 169.32 218.477 169.594 218.521C169.604 219.361 169.241 219.866 168.505 220.037C168.594 219.487 168.682 218.939 168.77 218.389Z" fill="#070925"/>
<path opacity="0.01" fill-rule="evenodd" clip-rule="evenodd" d="M128.962 213.686C129.972 214.412 129.972 214.412 128.962 213.686V213.686Z" fill="#090A25"/>
<path opacity="0.01" fill-rule="evenodd" clip-rule="evenodd" d="M97.657 208.659C97.5687 209.208 97.4806 209.757 97.3924 210.306C96.3825 209.58 96.4706 209.032 97.657 208.659Z" fill="#090823"/>
<path opacity="0.01" fill-rule="evenodd" clip-rule="evenodd" d="M167.682 219.904C167.956 219.948 168.231 219.993 168.505 220.037C168.516 220.877 168.153 221.381 167.417 221.552C167.505 221.002 167.593 220.454 167.682 219.904Z" fill="#05051F"/>
<path opacity="0.01" fill-rule="evenodd" clip-rule="evenodd" d="M166.593 221.42C166.867 221.464 167.143 221.508 167.417 221.552C167.176 222.08 166.901 222.036 166.593 221.42Z" fill="#070820"/>
<path opacity="0.01" fill-rule="evenodd" clip-rule="evenodd" d="M97.3923 210.307C97.6667 210.351 97.9418 210.395 98.2162 210.439C98.1279 210.988 98.0398 211.537 97.9515 212.087C97.3064 211.694 97.1194 211.101 97.3923 210.307Z" fill="#060621"/>
<path opacity="0.01" fill-rule="evenodd" clip-rule="evenodd" d="M130.213 216.422C131.223 217.148 131.223 217.148 130.213 216.422V216.422Z" fill="#090923"/>
<path opacity="0.01" fill-rule="evenodd" clip-rule="evenodd" d="M97.9515 212.086C98.2259 212.13 98.501 212.175 98.7754 212.219C98.5343 212.746 98.2592 212.702 97.9515 212.086Z" fill="#080722"/>
<path opacity="0.01" fill-rule="evenodd" clip-rule="evenodd" d="M165.637 222.111C165.911 222.155 166.187 222.2 166.461 222.244C166.471 223.084 166.108 223.588 165.372 223.759C165.461 223.209 165.549 222.661 165.637 222.111Z" fill="#080620"/>
<path opacity="0.01" fill-rule="evenodd" clip-rule="evenodd" d="M99.3346 213.998C98.6969 214.46 98.6969 214.46 99.3346 213.998V213.998Z" fill="#231F20"/>
<path opacity="0.01" fill-rule="evenodd" clip-rule="evenodd" d="M164.549 223.626C164.823 223.671 165.098 223.715 165.372 223.759C165.383 224.599 165.02 225.103 164.284 225.274C164.372 224.725 164.46 224.176 164.549 223.626Z" fill="#090A21"/>
<path opacity="0.01" fill-rule="evenodd" clip-rule="evenodd" d="M163.46 225.142C163.735 225.186 164.01 225.23 164.284 225.274C164.043 225.802 163.768 225.758 163.46 225.142Z" fill="#080921"/>
<path opacity="0.01" fill-rule="evenodd" clip-rule="evenodd" d="M99.7615 216.602C99.3884 215.416 99.3884 215.416 99.7615 216.602V216.602Z" fill="#060622"/>
<path opacity="0.01" fill-rule="evenodd" clip-rule="evenodd" d="M162.372 226.657C163.382 227.383 163.382 227.383 162.372 226.657V226.657Z" fill="#080923"/>
<path opacity="0.01" fill-rule="evenodd" clip-rule="evenodd" d="M99.7615 216.602C100.036 216.647 100.311 216.691 100.585 216.735C100.497 217.284 100.409 217.833 100.321 218.382C99.6756 217.99 99.4885 217.397 99.7615 216.602Z" fill="#050621"/>
<path opacity="0.01" fill-rule="evenodd" clip-rule="evenodd" d="M100.321 218.382C100.595 218.426 100.87 218.471 101.144 218.515C100.903 219.042 100.628 218.998 100.321 218.382Z" fill="#0A0A25"/>
<path opacity="0.01" fill-rule="evenodd" clip-rule="evenodd" d="M161.283 228.172C162.293 228.898 162.293 228.898 161.283 228.172V228.172Z" fill="#0A0A21"/>
<path opacity="0.01" fill-rule="evenodd" clip-rule="evenodd" d="M160.327 228.864C160.602 228.908 160.877 228.953 161.151 228.997C161.162 229.837 160.798 230.341 160.063 230.512C160.151 229.962 160.239 229.414 160.327 228.864Z" fill="#07081F"/>
<path opacity="0.01" fill-rule="evenodd" clip-rule="evenodd" d="M159.239 230.379C159.513 230.423 159.788 230.468 160.063 230.512C159.822 231.039 159.546 230.995 159.239 230.379Z" fill="#231F20"/>
<path opacity="0.01" fill-rule="evenodd" clip-rule="evenodd" d="M102.395 221.25C102.307 221.8 102.219 222.349 102.131 222.898C101.121 222.172 101.209 221.624 102.395 221.25Z" fill="#231F20"/>
<path opacity="0.01" fill-rule="evenodd" clip-rule="evenodd" d="M102.131 222.898C102.405 222.942 102.68 222.987 102.954 223.031C102.713 223.558 102.438 223.514 102.131 222.898Z" fill="#0A0B24"/>
<path opacity="0.01" fill-rule="evenodd" clip-rule="evenodd" d="M158.15 231.895C159.16 232.62 159.16 232.62 158.15 231.895V231.895Z" fill="#090924"/>
<path opacity="0.01" fill-rule="evenodd" clip-rule="evenodd" d="M103.514 224.81C102.876 225.272 102.876 225.272 103.514 224.81V224.81Z" fill="#060823"/>
<path opacity="0.01" fill-rule="evenodd" clip-rule="evenodd" d="M157.062 233.41C158.072 234.136 158.072 234.136 157.062 233.41V233.41Z" fill="#070724"/>
<path opacity="0.01" fill-rule="evenodd" clip-rule="evenodd" d="M156.106 234.102C156.38 234.146 156.655 234.19 156.93 234.234C156.689 234.761 156.413 234.717 156.106 234.102Z" fill="#070825"/>
<path opacity="0.01" fill-rule="evenodd" clip-rule="evenodd" d="M103.941 227.414C103.567 226.228 103.567 226.228 103.941 227.414V227.414Z" fill="#060720"/>
<path opacity="0.01" fill-rule="evenodd" clip-rule="evenodd" d="M103.941 227.414C104.215 227.458 104.49 227.502 104.764 227.546C104.523 228.074 104.248 228.03 103.941 227.414Z" fill="#080A24"/>
<path opacity="0.01" fill-rule="evenodd" clip-rule="evenodd" d="M155.017 235.617C156.027 236.343 156.027 236.343 155.017 235.617V235.617Z" fill="#080A24"/>
<path opacity="0.01" fill-rule="evenodd" clip-rule="evenodd" d="M105.324 229.326C104.686 229.788 104.686 229.788 105.324 229.326V229.326Z" fill="#231F20"/>
<path opacity="0.01" fill-rule="evenodd" clip-rule="evenodd" d="M153.929 237.132C154.939 237.858 154.939 237.858 153.929 237.132V237.132Z" fill="#080A23"/>
<path opacity="0.01" fill-rule="evenodd" clip-rule="evenodd" d="M152.973 237.824C153.247 237.868 153.522 237.912 153.797 237.956C153.807 238.796 153.444 239.3 152.708 239.471C152.797 238.922 152.885 238.373 152.973 237.824Z" fill="#090B24"/>
<path opacity="0.01" fill-rule="evenodd" clip-rule="evenodd" d="M106.574 232.062C106.486 232.612 106.398 233.161 106.31 233.71C105.3 232.984 105.388 232.436 106.574 232.062Z" fill="#231F20"/>
<path opacity="0.01" fill-rule="evenodd" clip-rule="evenodd" d="M151.884 239.339C152.159 239.383 152.434 239.428 152.708 239.472C152.719 240.312 152.355 240.816 151.62 240.987C151.708 240.438 151.796 239.889 151.884 239.339Z" fill="#080821"/>
<path opacity="0.01" fill-rule="evenodd" clip-rule="evenodd" d="M150.796 240.854C151.07 240.899 151.346 240.943 151.62 240.987C151.379 241.514 151.104 241.47 150.796 240.854Z" fill="#231F20"/>
<path opacity="0.01" fill-rule="evenodd" clip-rule="evenodd" d="M106.31 233.71C106.584 233.754 106.859 233.799 107.134 233.843C107.045 234.392 106.957 234.941 106.869 235.49C106.224 235.098 106.037 234.505 106.31 233.71Z" fill="#050520"/>
<path opacity="0.01" fill-rule="evenodd" clip-rule="evenodd" d="M106.869 235.49C107.143 235.534 107.419 235.578 107.693 235.623C107.452 236.15 107.177 236.106 106.869 235.49Z" fill="#080820"/>
<path opacity="0.01" fill-rule="evenodd" clip-rule="evenodd" d="M149.708 242.37C150.718 243.095 150.718 243.095 149.708 242.37V242.37Z" fill="#231F20"/>
<path opacity="0.01" fill-rule="evenodd" clip-rule="evenodd" d="M108.12 238.226C107.747 237.04 107.747 237.04 108.12 238.226V238.226Z" fill="#060723"/>
<path opacity="0.01" fill-rule="evenodd" clip-rule="evenodd" d="M148.619 243.885C149.629 244.611 149.629 244.611 148.619 243.885V243.885Z" fill="#050524"/>
<path opacity="0.01" fill-rule="evenodd" clip-rule="evenodd" d="M147.663 244.577C147.937 244.621 148.213 244.665 148.487 244.709C148.246 245.236 147.971 245.192 147.663 244.577Z" fill="#231F20"/>
<path opacity="0.01" fill-rule="evenodd" clip-rule="evenodd" d="M108.12 238.226C108.394 238.27 108.669 238.314 108.944 238.358C108.855 238.908 108.767 239.456 108.679 240.006C108.034 239.613 107.847 239.02 108.12 238.226Z" fill="#080A22"/>
<path opacity="0.01" fill-rule="evenodd" clip-rule="evenodd" d="M146.575 246.092C147.584 246.818 147.584 246.818 146.575 246.092V246.092Z" fill="#080921"/>
<path opacity="0.01" fill-rule="evenodd" clip-rule="evenodd" d="M108.679 240.006C108.953 240.05 109.228 240.095 109.503 240.139C109.415 240.688 109.326 241.237 109.238 241.786C108.593 241.394 108.406 240.801 108.679 240.006Z" fill="#040621"/>
<path opacity="0.01" fill-rule="evenodd" clip-rule="evenodd" d="M109.238 241.786C109.512 241.83 109.788 241.874 110.062 241.918C109.821 242.446 109.546 242.402 109.238 241.786Z" fill="#080923"/>
<path opacity="0.01" fill-rule="evenodd" clip-rule="evenodd" d="M145.486 247.607C146.496 248.333 146.496 248.333 145.486 247.607V247.607Z" fill="#060623"/>
<path opacity="0.01" fill-rule="evenodd" clip-rule="evenodd" d="M110.489 244.522C110.116 243.336 110.116 243.336 110.489 244.522V244.522Z" fill="#231F20"/>
<path opacity="0.01" fill-rule="evenodd" clip-rule="evenodd" d="M144.53 248.299C144.804 248.343 145.08 248.387 145.354 248.431C145.364 249.271 145.001 249.776 144.266 249.946C144.354 249.397 144.442 248.848 144.53 248.299Z" fill="#060521"/>
<path opacity="0.01" fill-rule="evenodd" clip-rule="evenodd" d="M143.442 249.814C143.716 249.858 143.991 249.902 144.265 249.946C144.024 250.474 143.749 250.43 143.442 249.814Z" fill="#231F20"/>
<path opacity="0.01" fill-rule="evenodd" clip-rule="evenodd" d="M110.489 244.522C110.763 244.566 111.038 244.61 111.313 244.654C111.224 245.204 111.136 245.752 111.048 246.302C110.403 245.909 110.216 245.316 110.489 244.522Z" fill="#231F20"/>
<path opacity="0.01" fill-rule="evenodd" clip-rule="evenodd" d="M111.048 246.302C111.322 246.346 111.598 246.39 111.872 246.435C111.631 246.962 111.356 246.918 111.048 246.302Z" fill="#231F20"/>
<path opacity="0.01" fill-rule="evenodd" clip-rule="evenodd" d="M142.353 251.33C143.363 252.055 143.363 252.055 142.353 251.33V251.33Z" fill="#231F20"/>
<path opacity="0.01" fill-rule="evenodd" clip-rule="evenodd" d="M112.431 248.214C111.793 248.675 111.793 248.675 112.431 248.214V248.214Z" fill="#090925"/>
<path opacity="0.01" fill-rule="evenodd" clip-rule="evenodd" d="M141.265 252.845C142.275 253.571 142.275 253.571 141.265 252.845V252.845Z" fill="#231F20"/>
<path opacity="0.01" fill-rule="evenodd" clip-rule="evenodd" d="M140.309 253.537C140.583 253.581 140.858 253.625 141.133 253.669C140.891 254.196 140.616 254.152 140.309 253.537Z" fill="#231F20"/>
<path opacity="0.01" fill-rule="evenodd" clip-rule="evenodd" d="M112.858 250.818C112.485 249.632 112.485 249.632 112.858 250.818V250.818Z" fill="#060723"/>
<path opacity="0.01" fill-rule="evenodd" clip-rule="evenodd" d="M112.858 250.818C113.132 250.862 113.408 250.906 113.682 250.95C113.441 251.478 113.166 251.433 112.858 250.818Z" fill="#060827"/>
<path opacity="0.01" fill-rule="evenodd" clip-rule="evenodd" d="M139.22 255.052C140.23 255.778 140.142 256.326 138.956 256.699C139.044 256.15 139.132 255.601 139.22 255.052Z" fill="#05071F"/>
<path opacity="0.01" fill-rule="evenodd" clip-rule="evenodd" d="M114.241 252.73C113.603 253.191 113.603 253.191 114.241 252.73V252.73Z" fill="#080925"/>
<path opacity="0.01" fill-rule="evenodd" clip-rule="evenodd" d="M138.132 256.567C138.406 256.611 138.681 256.655 138.956 256.699C138.715 257.227 138.439 257.182 138.132 256.567Z" fill="#231F20"/>
<path opacity="0.01" fill-rule="evenodd" clip-rule="evenodd" d="M137.043 258.083C138.053 258.808 138.053 258.808 137.043 258.083V258.083Z" fill="#231F20"/>
<path opacity="0.01" fill-rule="evenodd" clip-rule="evenodd" d="M115.492 255.466C115.404 256.016 115.315 256.564 115.227 257.114C114.217 256.388 114.305 255.839 115.492 255.466Z" fill="#080823"/>
<path opacity="0.01" fill-rule="evenodd" clip-rule="evenodd" d="M136.087 258.774C136.362 258.818 136.637 258.862 136.911 258.906C136.922 259.746 136.558 260.251 135.823 260.422C135.911 259.872 135.999 259.323 136.087 258.774Z" fill="#231F20"/>
<path opacity="0.01" fill-rule="evenodd" clip-rule="evenodd" d="M134.999 260.289C135.273 260.333 135.548 260.377 135.823 260.421C135.582 260.949 135.307 260.905 134.999 260.289Z" fill="#231F20"/>
<path opacity="0.01" fill-rule="evenodd" clip-rule="evenodd" d="M115.227 257.114C115.502 257.158 115.777 257.202 116.051 257.247C115.963 257.796 115.875 258.345 115.787 258.894C115.141 258.502 114.954 257.909 115.227 257.114Z" fill="#07061F"/>
<path opacity="0.01" fill-rule="evenodd" clip-rule="evenodd" d="M115.786 258.894C116.061 258.938 116.336 258.982 116.61 259.026C116.369 259.554 116.094 259.51 115.786 258.894Z" fill="#231F20"/>
<path opacity="0.01" fill-rule="evenodd" clip-rule="evenodd" d="M133.911 261.805C134.92 262.531 134.92 262.531 133.911 261.805V261.805Z" fill="#231F20"/>
<path opacity="0.01" fill-rule="evenodd" clip-rule="evenodd" d="M117.037 261.63C116.664 260.444 116.664 260.444 117.037 261.63V261.63Z" fill="#231F20"/>
<path opacity="0.01" fill-rule="evenodd" clip-rule="evenodd" d="M132.822 263.32C133.832 264.046 133.832 264.046 132.822 263.32V263.32Z" fill="#231F20"/>
<path opacity="0.01" fill-rule="evenodd" clip-rule="evenodd" d="M117.037 261.63C117.312 261.674 117.587 261.718 117.861 261.762C117.62 262.29 117.345 262.245 117.037 261.63Z" fill="#231F20"/>
<path opacity="0.01" fill-rule="evenodd" clip-rule="evenodd" d="M131.866 264.011C132.14 264.055 132.415 264.099 132.69 264.144C132.449 264.671 132.174 264.627 131.866 264.011Z" fill="#080825"/>
<path opacity="0.01" fill-rule="evenodd" clip-rule="evenodd" d="M118.42 263.542C117.782 264.004 117.782 264.004 118.42 263.542V263.542Z" fill="#231F20"/>
<path opacity="0.01" fill-rule="evenodd" clip-rule="evenodd" d="M130.777 265.527C131.787 266.253 131.787 266.253 130.777 265.527V265.527Z" fill="#090924"/>
<path opacity="0.01" fill-rule="evenodd" clip-rule="evenodd" d="M129.821 266.218C130.096 266.262 130.371 266.307 130.645 266.351C130.404 266.878 130.129 266.834 129.821 266.218Z" fill="#231F20"/>
<path opacity="0.01" fill-rule="evenodd" clip-rule="evenodd" d="M118.979 265.322C118.342 265.783 118.342 265.783 118.979 265.322V265.322Z" fill="#090924"/>
<path opacity="0.01" fill-rule="evenodd" clip-rule="evenodd" d="M128.733 267.733C129.743 268.459 129.743 268.459 128.733 267.733V267.733Z" fill="#080B21"/>
<path opacity="0.01" fill-rule="evenodd" clip-rule="evenodd" d="M119.406 267.926C119.033 266.74 119.033 266.74 119.406 267.926V267.926Z" fill="#07081D"/>
<path opacity="0.01" fill-rule="evenodd" clip-rule="evenodd" d="M127.645 269.249C128.654 269.975 128.654 269.975 127.645 269.249V269.249Z" fill="#0A0925"/>
<path opacity="0.01" fill-rule="evenodd" clip-rule="evenodd" d="M119.406 267.926C119.681 267.97 119.956 268.014 120.23 268.058C120.142 268.608 120.054 269.156 119.966 269.706C119.32 269.313 119.133 268.72 119.406 267.926Z" fill="#070923"/>
<path opacity="0.01" fill-rule="evenodd" clip-rule="evenodd" d="M126.688 269.94C126.963 269.984 127.238 270.029 127.512 270.073C127.271 270.6 126.996 270.556 126.688 269.94Z" fill="#231F20"/>
<path opacity="0.01" fill-rule="evenodd" clip-rule="evenodd" d="M119.966 269.706C120.24 269.75 120.515 269.794 120.789 269.838C120.548 270.366 120.273 270.322 119.966 269.706Z" fill="#231F20"/>
<path opacity="0.01" fill-rule="evenodd" clip-rule="evenodd" d="M125.6 271.456C126.61 272.182 126.61 272.182 125.6 271.456V271.456Z" fill="#090924"/>
<path opacity="0.01" fill-rule="evenodd" clip-rule="evenodd" d="M120.525 271.486C121.535 272.212 121.535 272.212 120.525 271.486V271.486Z" fill="#0A0A24"/>
</g>
<defs>
<clipPath id="clip0_874_2468">
<rect width="267" height="267" fill="white" transform="translate(42.8572) rotate(9.12354)"/>
</clipPath>
</defs>
</svg>
