<svg width="279" height="280" viewBox="0 0 279 280" fill="none" xmlns="http://www.w3.org/2000/svg">
<g opacity="0.15" clip-path="url(#clip0_874_2457)">
<path opacity="0.012" fill-rule="evenodd" clip-rule="evenodd" d="M8.90738 78.4313C69.7939 55.4279 131.02 33.0231 192.585 11.2168C131.437 33.8342 70.2113 56.239 8.90738 78.4313Z" fill="#231F20"/>
<path opacity="0.922" fill-rule="evenodd" clip-rule="evenodd" d="M9.13969 79.0697C70.6167 56.6939 132.094 34.3178 193.571 11.942C215.947 73.4191 238.323 134.897 260.699 196.374C199.26 218.856 137.744 241.126 76.1512 263.182C52.9638 202.121 30.6268 140.75 9.13969 79.0697ZM106.691 134.626C110.018 135.824 113.21 137.312 116.266 139.091C122.785 141.777 129.168 144.754 135.416 148.02C143.103 151.34 150.753 154.819 158.366 158.458C164.724 174.933 170.87 191.486 176.803 208.119C146.596 219.113 116.389 230.108 86.1825 241.102C67.7554 190.474 49.328 139.845 30.9009 89.2171C45.7916 83.7973 60.6823 78.3776 75.5729 72.9578C82.3577 91.9302 89.3551 110.824 96.5646 129.639C100.04 131.17 103.415 132.833 106.691 134.626ZM164.251 141.862C164.545 141.801 164.72 141.618 164.773 141.31C164.048 140.972 163.322 140.634 162.597 140.296C162.395 140.534 162.367 140.785 162.51 141.05C159.473 139.987 156.572 138.634 153.805 136.991C154.1 136.931 154.275 136.747 154.327 136.44C153.602 136.101 152.876 135.763 152.151 135.425C151.95 135.663 151.921 135.915 152.064 136.179C149.027 135.116 146.126 133.763 143.36 132.12C140.033 130.922 136.841 129.434 133.785 127.655C130.168 126.322 126.686 124.698 123.34 122.785C119.723 121.451 116.241 119.827 112.894 117.914C112.179 117.934 111.598 117.663 111.153 117.102C105.869 100.6 100.119 84.1432 93.9063 67.7304C123.338 56.7794 152.877 46.2688 182.525 36.1984C182.555 35.9469 182.583 35.6956 182.612 35.4441C152.852 45.6737 123.168 56.1166 93.5579 66.7732C123.222 55.6149 152.965 44.6689 182.786 33.9355C201.213 84.5636 219.64 135.192 238.068 185.821C223.177 191.24 208.286 196.66 193.395 202.08C186.688 183.32 179.768 164.639 172.636 146.037C169.741 144.776 166.946 143.384 164.251 141.862Z" fill="#231F20"/>
<path opacity="0.01" fill-rule="evenodd" clip-rule="evenodd" d="M31.7714 89.6227C46.1995 84.2509 60.7034 79.0922 75.2833 74.147C61.1485 79.653 46.9346 84.9468 32.6418 90.0285C50.9041 140.193 69.099 190.183 87.2266 239.999C68.3167 190.03 49.8316 139.904 31.7714 89.6227Z" fill="#231F20"/>
<path opacity="0.01" fill-rule="evenodd" clip-rule="evenodd" d="M157.641 159.444C164.123 175.269 170.22 191.359 175.933 207.713C171.074 209.601 166.142 211.276 161.138 212.736C165.698 210.715 170.339 208.906 175.062 207.307C169.255 191.353 163.448 175.398 157.641 159.444Z" fill="#231F20"/>
<path opacity="0.01" fill-rule="evenodd" clip-rule="evenodd" d="M77.3701 264.546C137.832 241.697 198.632 219.447 259.771 197.796C199.049 220.258 138.248 242.508 77.3701 264.546Z" fill="#231F20"/>
</g>
<defs>
<clipPath id="clip0_874_2457">
<rect width="217.321" height="217.321" fill="white" transform="translate(0 74.8076) rotate(-20)"/>
</clipPath>
</defs>
</svg>
