<svg width="41" height="50" viewBox="0 0 41 50" fill="none" xmlns="http://www.w3.org/2000/svg">
<path d="M5.31349 12.3284C5.3023 12.3619 5.35081 12.6119 5.42543 12.8843C5.71275 13.9478 5.98513 15.1119 6.17543 16.0821C6.25006 16.4627 6.33588 16.8881 6.36573 17.0336C6.39558 17.1754 6.47021 17.556 6.53364 17.8731C6.6717 18.5896 6.83961 19.3433 6.96275 19.8321C7.01498 20.0373 7.07469 20.2724 7.09334 20.3545C7.12693 20.4963 7.4217 21.3918 7.49633 21.5746C7.51499 21.6231 7.59334 21.8209 7.6717 22.0149C8.3023 23.6231 9.64185 25.5784 10.8471 26.6605C12.2911 27.9552 13.6605 28.6978 15.5411 29.209C15.9254 29.3134 16.8732 29.4776 17.0971 29.4776C17.1792 29.4776 17.2463 29.4552 17.265 29.4216C17.2836 29.3918 17.2836 29.2015 17.265 29.0037C17.2165 28.4328 17.2575 27.3284 17.3508 26.8097C17.4702 26.1269 17.6717 25.444 17.9516 24.7612C18.0113 24.6194 18.0598 24.4776 18.0598 24.444C18.0598 24.3731 17.7874 23.944 17.3993 23.3993C16.1866 21.7052 14.7165 20.0522 13.2463 18.7202C12.9292 18.4328 12.6008 18.1381 12.5187 18.0634C12.3396 17.903 11.0411 16.8657 10.6008 16.5299C10.4254 16.3993 10.2575 16.2649 10.2202 16.2276C10.1866 16.194 10.1344 16.1567 10.1083 16.1455C10.0784 16.1343 10.1008 16.1231 10.1605 16.1231C10.2165 16.1194 10.2613 16.1343 10.2613 16.1567C10.2613 16.1754 10.2874 16.194 10.321 16.194C10.4851 16.194 12.1307 17.2799 13.2836 18.1493C14.0933 18.7612 14.2836 18.9104 14.5896 19.1791C14.7426 19.3134 15.0187 19.5485 15.2053 19.7015C15.9217 20.2985 17.5859 22.0261 18.4926 23.1119C18.668 23.3246 18.7389 23.3246 18.8769 23.1045C19.2202 22.5672 20.0001 21.6194 20.6904 20.903C21.056 20.5261 21.056 20.5149 20.8396 20.1604C20.1568 19.0634 19.2874 18.1455 17.7986 16.9552C16.071 15.5746 14.2389 14.6231 11.5486 13.7127C11.2613 13.6157 10.9441 13.5149 10.8396 13.4888C10.7389 13.4627 10.3508 13.3582 9.9814 13.2537C8.88812 12.9478 8.25006 12.8022 6.56722 12.4776C5.45155 12.2612 5.34334 12.25 5.31349 12.3284Z" fill="black"/>
<path d="M34.6456 14.5933C33.7053 14.8657 31.9665 15.4142 31.5299 15.5784C31.459 15.6045 31.2725 15.6716 31.1195 15.7276C29.1904 16.4366 27.2762 17.3209 25.9143 18.1306C24.3546 19.056 23.1493 19.9888 21.8993 21.2313C20.0673 23.0522 19.0859 24.5261 18.6158 26.1493C18.4143 26.8545 18.377 27.1679 18.377 28.2463C18.377 29.3508 18.4217 29.7351 18.6419 30.597C18.7762 31.1082 19.0934 32.0448 19.2576 32.4142C19.2986 32.5 19.3284 32.5896 19.3284 32.6119C19.3284 32.6343 19.362 32.6493 19.4068 32.6418C19.4702 32.6343 19.5449 32.5 19.7725 31.9963C20.1941 31.0672 20.5896 30.3209 21.3695 29.0112C21.515 28.7612 22.1978 27.7313 22.5411 27.2388C23.0561 26.4963 23.9441 25.3619 24.709 24.4702C25.8135 23.1828 27.5001 21.5485 28.862 20.4478C29.0001 20.3358 29.2501 20.1269 29.418 19.9888C29.7613 19.6978 30.5411 19.1679 30.5971 19.1866C30.6493 19.2015 30.4964 19.3619 30.1307 19.6828C29.209 20.4851 27.3508 22.4291 26.5001 23.4739C25.7538 24.3955 24.959 25.5149 24.1941 26.7164C23.918 27.1455 23.1344 28.4851 23.1344 28.5224C23.1344 28.5299 23.0449 28.694 22.9367 28.8843C22.3919 29.847 21.5187 31.6978 21.265 32.4254C21.0859 32.9403 20.7576 33.9552 20.6904 34.1978C20.6568 34.3209 20.6158 34.4552 20.5971 34.4963C20.5784 34.5373 20.5561 34.6119 20.5486 34.6642C20.5411 34.7164 20.4143 35.1866 20.2725 35.709C20.127 36.2313 19.974 36.8097 19.9292 36.9963C19.8844 37.1791 19.8322 37.3918 19.8135 37.4627C19.6755 37.9776 19.6307 38.2202 19.668 38.2873C19.7016 38.3545 19.7613 38.3582 20.6344 38.3582C21.3844 38.3582 21.571 38.347 21.6158 38.306C21.6531 38.2687 21.6829 38.0634 21.7128 37.6231C21.7613 36.9813 21.7837 36.75 21.8844 35.9254C21.9478 35.3769 21.9814 35.2724 22.0971 35.2276C22.1456 35.2127 22.3844 35.1866 22.6307 35.1716C22.877 35.1605 23.2464 35.1231 23.4516 35.0896C25.8396 34.7202 27.8658 33.8284 29.5896 32.3918C30.5411 31.6008 31.5934 30.3843 32.2016 29.3843C32.2501 29.3022 32.3583 29.1269 32.4367 28.9925C32.5187 28.8582 32.7128 28.4963 32.8732 28.1903C33.9665 26.0634 34.4553 24.1269 34.7389 20.8022C34.8583 19.3769 35.0523 17.5336 35.168 16.6828C35.2202 16.3209 35.2762 15.8993 35.2986 15.7463C35.321 15.5933 35.362 15.3321 35.3919 15.1679C35.4217 15.0037 35.4516 14.7687 35.4553 14.6455C35.4665 14.4291 35.4628 14.4216 35.3732 14.4142C35.321 14.4105 34.9964 14.4925 34.6456 14.5933Z" fill="black"/>
</svg>
