<svg width="261" height="50" viewBox="0 0 261 50" fill="none" xmlns="http://www.w3.org/2000/svg">
<path d="M5.8724 18.114C0.0138225 18.5774 -0.00715847 24.2004 -0.00715847 24.2004C-0.0840917 30.6455 6.65184 31.151 6.65184 31.151L14.1043 31.1439L16.4503 27.7687L6.91139 27.7273C4.25681 27.3679 4.04466 24.7349 4.04466 24.7349C3.7851 22.1042 6.64174 21.7784 6.64174 21.7784L11.9649 21.776L15.0951 18.114H5.8724Z" fill="url(#paint0_linear_638_1791)"/>
<path d="M22.0937 18.0961L18.9993 21.7604L19.0008 21.7612L29.8865 21.7487L32.224 18.0961H32.2225H22.0937Z" fill="url(#paint1_linear_638_1791)"/>
<path d="M20.6832 26.535L27.9468 26.4413C27.9468 26.4413 29.2329 26.2381 29.2329 27.2476C29.2329 27.2476 29.6409 28.0937 28.1224 28.2602L18.9122 28.2844L16.5988 31.3854L29.1855 31.287C29.1855 31.287 32.5115 31.101 32.4921 27.6578C32.4921 27.6578 32.9475 24.4333 28.9057 24.1138L16.9469 23.7755C16.9469 23.7755 17.8833 26.0405 20.6832 26.535Z" fill="url(#paint2_linear_638_1791)"/>
<path d="M13.1259 21.7604L13.1282 21.7612L14.8122 21.7526L17.9843 18.1273L16.4876 18.114L13.1259 21.7604Z" fill="url(#paint3_linear_638_1791)"/>
<path d="M19.0148 18.1086L15.9903 21.7604L15.9926 21.7612H17.6766L20.4913 18.1L19.0148 18.1086Z" fill="url(#paint4_linear_638_1791)"/>
<path d="M17.7877 48.2797C36.7094 54.2715 44.8511 42.1847 44.8511 42.1847C35.0107 50.7564 23.4 47.471 23.4 47.471C10.9935 44.4169 6.97978 32.5371 6.97978 32.5371C4.0602 32.4441 1.9527 30.8901 1.9527 30.8901C6.70779 44.8458 17.7877 48.2797 17.7877 48.2797Z" fill="url(#paint5_linear_638_1791)"/>
<path d="M17.9874 1.20104C17.9874 1.20104 6.77306 3.96765 1.45068 16.7686H1.45146C1.48643 16.7467 3.64367 15.4045 6.54226 15.4295C6.54226 15.4295 11.037 4.52941 23.5616 2.17064C23.5616 2.17064 35.3254 -0.506907 44.8076 7.85466C44.8076 7.85466 39.4736 0.141581 26.6483 0.140017C24.0698 0.140017 21.1907 0.452541 17.9874 1.20104Z" fill="url(#paint6_linear_638_1791)"/>
<path d="M12.4763 8.38437C37.0926 -4.45879 45.7526 17.2772 45.7526 17.2772C48.8828 16.9358 49.9093 18.5828 49.9093 18.5828C47.5493 10.154 39.3803 5.83105 39.3803 5.83105C35.3324 3.5801 31.4718 2.76597 28.0004 2.76597C18.8897 2.76597 12.4763 8.38437 12.4763 8.38437Z" fill="url(#paint7_linear_638_1791)"/>
<path d="M47.1334 18.0226C45.9227 17.9515 45.5684 19.2352 45.5684 19.2352L41.7023 26.8436L37.5751 19.5071C35.8103 16.4506 34.4698 19.0657 34.4698 19.0657L32.8138 25.4841C34.3035 29.2079 31.3598 31.3111 31.3598 31.3111H34.5086L36.3146 23.4215L39.8582 30.1243C39.789 29.9939 39.0182 28.5281 40.0128 30.3845C41.0526 32.3253 42.5081 30.822 42.5081 30.822L46.3626 23.4637C47.3487 23.8153 48.2354 31.151 48.2354 31.151C44.3297 40.5423 35.8693 43.9488 35.8693 43.9488C25.4523 48.139 13.941 41.3494 13.941 41.3494C23.466 49.082 34.1714 46.4615 34.1714 46.4615C47.7722 43.8707 51.3756 31.151 51.3756 31.151C51.7269 28.9985 49.0785 19.3055 49.0785 19.3055C48.8446 18.1492 47.8562 18.0086 47.3844 18.0086C47.2329 18.0086 47.1334 18.0226 47.1334 18.0226ZM39.859 30.1259C39.8582 30.1251 39.8582 30.1251 39.8582 30.1243L39.859 30.1259ZM39.8636 30.1337C39.8636 30.1337 39.8621 30.1306 39.859 30.1259L39.8636 30.1337Z" fill="url(#paint8_linear_638_1791)"/>
<path d="M68.0546 0.140003L68.0538 0.142345V49.9461L68.4292 49.9469V0.140003H68.0546Z" fill="url(#paint9_linear_638_1791)"/>
<path d="M136.63 6.78431L136.629 6.78587V8.54694H142.137V21.5112H144.322V8.54694H149.831V6.78431H149.83H136.63Z" fill="url(#paint10_linear_638_1791)"/>
<path d="M84.1989 14.1387C84.1989 18.4601 88.3891 21.9659 93.5164 21.9659C95.6853 21.9659 97.67 21.3479 99.1356 20.2587V18.2234C97.67 19.386 95.6495 20.0212 93.6974 20.0212C89.5081 20.0212 86.2411 17.3718 86.2411 14.1387C86.2411 10.8885 89.5081 8.27423 93.6974 8.27423C95.8119 8.27423 97.6902 8.96334 99.1162 10.108V8.01873C97.67 6.96631 95.6853 6.33111 93.5164 6.33111C88.3891 6.33111 84.1989 9.81809 84.1989 14.1387Z" fill="url(#paint11_linear_638_1791)"/>
<path d="M107.029 6.78431L99.1356 21.5112H101.447L102.928 18.7141H113.005L114.486 21.5112H116.78L108.906 6.78431H107.029ZM107.967 9.18214L112.084 16.953H103.849L107.967 9.18214Z" fill="url(#paint12_linear_638_1791)"/>
<path d="M117.54 6.78431V21.5112H117.541H119.723V17.0437H123.553C128.087 17.0437 130.489 14.8826 130.489 11.8878C130.489 8.83759 127.87 6.78431 124.04 6.78431H117.54ZM119.723 8.45631H123.771C126.605 8.45631 128.375 9.88923 128.375 11.905C128.375 13.9942 126.55 15.3553 123.408 15.3553H119.723V8.45631Z" fill="url(#paint13_linear_638_1791)"/>
<path d="M132.777 6.78587V21.5112H134.943V6.78587H132.777Z" fill="url(#paint14_linear_638_1791)"/>
<path d="M154.744 6.78431L146.852 21.5112H146.853H149.165L150.644 18.7141H160.72L162.203 21.5112H164.496L156.622 6.78431H154.744ZM155.684 9.18214L159.801 16.953H151.565L155.684 9.18214Z" fill="url(#paint15_linear_638_1791)"/>
<path d="M165.256 6.78431V6.78587V21.5112H165.257H176.85V19.7486H167.442V6.78431H165.256Z" fill="url(#paint16_linear_638_1791)"/>
<path d="M184.443 10.108C184.443 12.2675 186.283 14.0114 190.564 14.3208C193.599 14.556 195.043 15.4459 195.043 16.9179C195.043 18.3149 193.183 19.5681 190.548 19.5681C187.91 19.5681 185.906 18.3149 185.761 16.6452L183.667 16.7702C183.901 19.6954 186.826 21.5112 190.548 21.5112C194.339 21.5112 197.085 19.3509 197.085 16.9179C197.085 14.5747 195.187 12.9035 190.654 12.5957C187.711 12.3589 186.483 11.3425 186.483 10.108C186.483 8.89072 187.802 7.81954 190.457 7.81954C193.201 7.81954 194.663 9.23684 194.718 10.5791L196.776 10.4346C196.723 8.05706 194.249 5.87799 190.438 5.87799C186.844 5.87799 184.443 7.72813 184.443 10.108Z" fill="url(#paint17_linear_638_1791)"/>
<path d="M216.066 6.33111L207.922 16.1373L199.757 6.33111H198.909V21.0572H201.095V10.8525L207.723 18.9328H208.12L214.766 10.8346V21.0572H216.931V6.33189L216.931 6.33111H216.066Z" fill="url(#paint18_linear_638_1791)"/>
<path d="M225.927 6.33111L218.035 21.0572H220.347L221.828 18.2601H231.905L233.387 21.0572H235.68L227.806 6.33111H225.927ZM226.866 8.72738L230.984 16.4983H222.749L226.866 8.72738Z" fill="url(#paint19_linear_638_1791)"/>
<path d="M236.438 6.33111V21.0572H238.607V14.5747L246.679 21.0572H249.352L241.694 14.9739H242.038C245.432 14.9739 247.89 13.2308 247.89 10.6705C247.89 8.1828 245.595 6.33111 242.346 6.33111H236.438ZM238.607 7.9656H241.694C244.295 7.9656 245.685 9.23679 245.685 10.7611C245.685 12.2144 244.278 13.5035 241.767 13.5035H238.607V7.9656Z" fill="url(#paint20_linear_638_1791)"/>
<path d="M247.8 6.33111L247.799 6.33345V8.09296H253.308V21.0572H255.492V8.09296H261V6.33189L260.999 6.33111H247.8Z" fill="url(#paint21_linear_638_1791)"/>
<path d="M101.356 28.5757L93.2118 38.3796L85.0475 28.5757H84.1989V28.5773V43.3011H84.1997H86.3841V33.0964L93.012 41.1775H93.4099L100.056 33.0792V43.3011H102.223V28.5757H102.221H101.356Z" fill="url(#paint22_linear_638_1791)"/>
<path d="M103.922 35.9302C103.922 40.2501 108.112 43.7558 113.26 43.7558C118.407 43.7558 122.577 40.2501 122.577 35.9302C122.577 31.608 118.407 28.121 113.26 28.121C108.112 28.121 103.922 31.608 103.922 35.9302ZM105.945 35.9302C105.945 32.6784 109.196 30.0657 113.26 30.0657C117.286 30.0657 120.536 32.6784 120.536 35.9302C120.536 39.1601 117.286 41.8111 113.26 41.8111C109.196 41.8111 105.945 39.1601 105.945 35.9302Z" fill="url(#paint23_linear_638_1791)"/>
<path d="M122.254 28.5757V28.5773V30.3368H127.762V43.3011H129.948V30.3368H135.454V28.5757H135.454H122.254Z" fill="url(#paint24_linear_638_1791)"/>
<path d="M134.246 35.9302C134.246 40.2501 138.436 43.7558 143.584 43.7558C148.73 43.7558 152.901 40.2501 152.901 35.9302C152.901 31.608 148.73 28.121 143.584 28.121C138.436 28.121 134.246 31.608 134.246 35.9302ZM136.269 35.9302C136.269 32.6784 139.519 30.0657 143.584 30.0657C147.609 30.0657 150.859 32.6784 150.859 35.9302C150.859 39.1601 147.609 41.8111 143.584 41.8111C139.519 41.8111 136.269 39.1601 136.269 35.9302Z" fill="url(#paint25_linear_638_1791)"/>
<path d="M154.274 28.5757V43.3011H154.276H156.442V36.8185L164.515 43.3011H167.188L159.531 37.2186H159.873C163.268 37.2186 165.725 35.4747 165.725 32.9159C165.725 30.4282 163.43 28.5757 160.18 28.5757H154.274ZM156.442 30.2094H159.531C162.132 30.2094 163.521 31.4814 163.521 33.0057C163.521 34.4582 162.112 35.7481 159.603 35.7481H156.442V30.2094Z" fill="url(#paint26_linear_638_1791)"/>
<path d="M167.514 32.3526C167.514 34.5129 169.355 36.256 173.637 36.5654C176.669 36.8006 178.115 37.6897 178.115 39.1601C178.115 40.5595 176.254 41.8111 173.617 41.8111C170.98 41.8111 168.976 40.5595 168.833 38.8882L166.738 39.0164C166.972 41.9393 169.898 43.7558 173.617 43.7558C177.41 43.7558 180.156 41.5939 180.156 39.1601C180.156 36.8186 178.258 35.1481 173.727 34.8403C170.781 34.6043 169.554 33.5871 169.554 32.3526C169.554 31.1361 170.872 30.0657 173.527 30.0657C176.273 30.0657 177.736 31.4814 177.79 32.8245L179.849 32.6784C179.793 30.3001 177.32 28.121 173.509 28.121C169.914 28.121 167.514 29.9743 167.514 32.3526Z" fill="url(#paint27_linear_638_1791)"/>
<defs>
<linearGradient id="paint0_linear_638_1791" x1="236.858" y1="79.9921" x2="-24.2549" y2="17.4588" gradientUnits="userSpaceOnUse">
<stop/>
<stop offset="0.509979"/>
<stop offset="0.523891"/>
<stop offset="0.530154"/>
<stop offset="1"/>
</linearGradient>
<linearGradient id="paint1_linear_638_1791" x1="238.878" y1="71.5574" x2="-22.2349" y2="9.02423" gradientUnits="userSpaceOnUse">
<stop/>
<stop offset="0.509979"/>
<stop offset="0.523891"/>
<stop offset="0.530154"/>
<stop offset="1"/>
</linearGradient>
<linearGradient id="paint2_linear_638_1791" x1="237.1" y1="78.9822" x2="-24.0131" y2="16.449" gradientUnits="userSpaceOnUse">
<stop/>
<stop offset="0.509979"/>
<stop offset="0.523891"/>
<stop offset="0.530154"/>
<stop offset="1"/>
</linearGradient>
<linearGradient id="paint3_linear_638_1791" x1="238.325" y1="73.8672" x2="-22.7881" y2="11.3341" gradientUnits="userSpaceOnUse">
<stop/>
<stop offset="0.509979"/>
<stop offset="0.523891"/>
<stop offset="0.530154"/>
<stop offset="1"/>
</linearGradient>
<linearGradient id="paint4_linear_638_1791" x1="238.474" y1="73.2461" x2="-22.6393" y2="10.713" gradientUnits="userSpaceOnUse">
<stop/>
<stop offset="0.509979"/>
<stop offset="0.523891"/>
<stop offset="0.530154"/>
<stop offset="1"/>
</linearGradient>
<linearGradient id="paint5_linear_638_1791" x1="233.629" y1="93.4738" x2="-27.4836" y2="30.9405" gradientUnits="userSpaceOnUse">
<stop/>
<stop offset="0.509979"/>
<stop offset="0.523891"/>
<stop offset="0.530154"/>
<stop offset="1"/>
</linearGradient>
<linearGradient id="paint6_linear_638_1791" x1="241.413" y1="60.9743" x2="-19.7004" y2="-1.5589" gradientUnits="userSpaceOnUse">
<stop/>
<stop offset="0.509979"/>
<stop offset="0.523891"/>
<stop offset="0.530154"/>
<stop offset="1"/>
</linearGradient>
<linearGradient id="paint7_linear_638_1791" x1="242.097" y1="58.1186" x2="-19.0165" y2="-4.41462" gradientUnits="userSpaceOnUse">
<stop/>
<stop offset="0.509979"/>
<stop offset="0.523891"/>
<stop offset="0.530154"/>
<stop offset="1"/>
</linearGradient>
<linearGradient id="paint8_linear_638_1791" x1="236.368" y1="82.0394" x2="-24.7452" y2="19.5062" gradientUnits="userSpaceOnUse">
<stop/>
<stop offset="0.509979"/>
<stop offset="0.523891"/>
<stop offset="0.530154"/>
<stop offset="1"/>
</linearGradient>
<linearGradient id="paint9_linear_638_1791" x1="240.054" y1="66.6375" x2="-21.056" y2="4.10575" gradientUnits="userSpaceOnUse">
<stop/>
<stop offset="0.509979"/>
<stop offset="0.523891"/>
<stop offset="0.530154"/>
<stop offset="1"/>
</linearGradient>
<linearGradient id="paint10_linear_638_1791" x1="246.632" y1="39.18" x2="-14.4809" y2="-23.3533" gradientUnits="userSpaceOnUse">
<stop/>
<stop offset="0.509979"/>
<stop offset="0.523891"/>
<stop offset="0.530154"/>
<stop offset="1"/>
</linearGradient>
<linearGradient id="paint11_linear_638_1791" x1="243.806" y1="50.9792" x2="-17.3067" y2="-11.554" gradientUnits="userSpaceOnUse">
<stop/>
<stop offset="0.509979"/>
<stop offset="0.523891"/>
<stop offset="0.530154"/>
<stop offset="1"/>
</linearGradient>
<linearGradient id="paint12_linear_638_1791" x1="244.699" y1="47.251" x2="-16.414" y2="-15.2822" gradientUnits="userSpaceOnUse">
<stop/>
<stop offset="0.509979"/>
<stop offset="0.523891"/>
<stop offset="0.530154"/>
<stop offset="1"/>
</linearGradient>
<linearGradient id="paint13_linear_638_1791" x1="245.579" y1="43.577" x2="-15.5341" y2="-18.9563" gradientUnits="userSpaceOnUse">
<stop/>
<stop offset="0.509979"/>
<stop offset="0.523891"/>
<stop offset="0.530154"/>
<stop offset="1"/>
</linearGradient>
<linearGradient id="paint14_linear_638_1791" x1="246.119" y1="41.3247" x2="-14.9947" y2="-21.2087" gradientUnits="userSpaceOnUse">
<stop/>
<stop offset="0.509979"/>
<stop offset="0.523891"/>
<stop offset="0.530154"/>
<stop offset="1"/>
</linearGradient>
<linearGradient id="paint15_linear_638_1791" x1="247.314" y1="36.3326" x2="-13.799" y2="-26.2006" gradientUnits="userSpaceOnUse">
<stop/>
<stop offset="0.509979"/>
<stop offset="0.523891"/>
<stop offset="0.530154"/>
<stop offset="1"/>
</linearGradient>
<linearGradient id="paint16_linear_638_1791" x1="248.157" y1="32.8135" x2="-12.9564" y2="-29.7198" gradientUnits="userSpaceOnUse">
<stop/>
<stop offset="0.509979"/>
<stop offset="0.523891"/>
<stop offset="0.530154"/>
<stop offset="1"/>
</linearGradient>
<linearGradient id="paint17_linear_638_1791" x1="249.318" y1="27.9636" x2="-11.7945" y2="-34.5695" gradientUnits="userSpaceOnUse">
<stop/>
<stop offset="0.509979"/>
<stop offset="0.523891"/>
<stop offset="0.530154"/>
<stop offset="1"/>
</linearGradient>
<linearGradient id="paint18_linear_638_1791" x1="250.28" y1="23.949" x2="-10.8332" y2="-38.5842" gradientUnits="userSpaceOnUse">
<stop/>
<stop offset="0.509979"/>
<stop offset="0.523891"/>
<stop offset="0.530154"/>
<stop offset="1"/>
</linearGradient>
<linearGradient id="paint19_linear_638_1791" x1="251.317" y1="19.6157" x2="-9.79552" y2="-42.9174" gradientUnits="userSpaceOnUse">
<stop/>
<stop offset="0.509979"/>
<stop offset="0.523891"/>
<stop offset="0.530154"/>
<stop offset="1"/>
</linearGradient>
<linearGradient id="paint20_linear_638_1791" x1="252.196" y1="15.946" x2="-8.91644" y2="-46.5871" gradientUnits="userSpaceOnUse">
<stop/>
<stop offset="0.509979"/>
<stop offset="0.523891"/>
<stop offset="0.530154"/>
<stop offset="1"/>
</linearGradient>
<linearGradient id="paint21_linear_638_1791" x1="252.827" y1="13.3135" x2="-8.28616" y2="-49.2197" gradientUnits="userSpaceOnUse">
<stop/>
<stop offset="0.509979"/>
<stop offset="0.523891"/>
<stop offset="0.530154"/>
<stop offset="1"/>
</linearGradient>
<linearGradient id="paint22_linear_638_1791" x1="238.958" y1="71.222" x2="-22.1547" y2="8.68874" gradientUnits="userSpaceOnUse">
<stop/>
<stop offset="0.509979"/>
<stop offset="0.523891"/>
<stop offset="0.530154"/>
<stop offset="1"/>
</linearGradient>
<linearGradient id="paint23_linear_638_1791" x1="240.057" y1="66.6368" x2="-21.0565" y2="4.10353" gradientUnits="userSpaceOnUse">
<stop/>
<stop offset="0.509979"/>
<stop offset="0.523891"/>
<stop offset="0.530154"/>
<stop offset="1"/>
</linearGradient>
<linearGradient id="paint24_linear_638_1791" x1="240.912" y1="63.0661" x2="-20.2013" y2="0.532862" gradientUnits="userSpaceOnUse">
<stop/>
<stop offset="0.509979"/>
<stop offset="0.523891"/>
<stop offset="0.530154"/>
<stop offset="1"/>
</linearGradient>
<linearGradient id="paint25_linear_638_1791" x1="241.718" y1="59.698" x2="-19.3947" y2="-2.83524" gradientUnits="userSpaceOnUse">
<stop/>
<stop offset="0.509979"/>
<stop offset="0.523891"/>
<stop offset="0.530154"/>
<stop offset="1"/>
</linearGradient>
<linearGradient id="paint26_linear_638_1791" x1="242.658" y1="55.772" x2="-18.4545" y2="-6.76124" gradientUnits="userSpaceOnUse">
<stop/>
<stop offset="0.509979"/>
<stop offset="0.523891"/>
<stop offset="0.530154"/>
<stop offset="1"/>
</linearGradient>
<linearGradient id="paint27_linear_638_1791" x1="243.355" y1="52.8625" x2="-17.7578" y2="-9.6708" gradientUnits="userSpaceOnUse">
<stop/>
<stop offset="0.509979"/>
<stop offset="0.523891"/>
<stop offset="0.530154"/>
<stop offset="1"/>
</linearGradient>
</defs>
</svg>
